G04 #@! TF.GenerationSoftware,KiCad,Pcbnew,(5.1.9)-1*
G04 #@! TF.CreationDate,2022-04-07T18:54:58+09:00*
G04 #@! TF.ProjectId,digital_amp,64696769-7461-46c5-9f61-6d702e6b6963,rev?*
G04 #@! TF.SameCoordinates,Original*
G04 #@! TF.FileFunction,Copper,L1,Top*
G04 #@! TF.FilePolarity,Positive*
%FSLAX46Y46*%
G04 Gerber Fmt 4.6, Leading zero omitted, Abs format (unit mm)*
G04 Created by KiCad (PCBNEW (5.1.9)-1) date 2022-04-07 18:54:58*
%MOMM*%
%LPD*%
G01*
G04 APERTURE LIST*
G04 #@! TA.AperFunction,ComponentPad*
%ADD10C,2.700000*%
G04 #@! TD*
G04 #@! TA.AperFunction,ComponentPad*
%ADD11O,1.700000X1.700000*%
G04 #@! TD*
G04 #@! TA.AperFunction,ComponentPad*
%ADD12R,1.700000X1.700000*%
G04 #@! TD*
G04 #@! TA.AperFunction,ComponentPad*
%ADD13O,2.000000X1.905000*%
G04 #@! TD*
G04 #@! TA.AperFunction,ComponentPad*
%ADD14R,2.000000X1.905000*%
G04 #@! TD*
G04 #@! TA.AperFunction,ComponentPad*
%ADD15O,1.600000X1.600000*%
G04 #@! TD*
G04 #@! TA.AperFunction,ComponentPad*
%ADD16R,1.600000X1.600000*%
G04 #@! TD*
G04 #@! TA.AperFunction,ComponentPad*
%ADD17O,1.400000X1.400000*%
G04 #@! TD*
G04 #@! TA.AperFunction,ComponentPad*
%ADD18C,1.400000*%
G04 #@! TD*
G04 #@! TA.AperFunction,ComponentPad*
%ADD19R,4.500000X2.500000*%
G04 #@! TD*
G04 #@! TA.AperFunction,ComponentPad*
%ADD20O,4.500000X2.500000*%
G04 #@! TD*
G04 #@! TA.AperFunction,ComponentPad*
%ADD21O,2.000000X2.000000*%
G04 #@! TD*
G04 #@! TA.AperFunction,ComponentPad*
%ADD22R,2.000000X2.000000*%
G04 #@! TD*
G04 #@! TA.AperFunction,ComponentPad*
%ADD23C,2.000000*%
G04 #@! TD*
G04 #@! TA.AperFunction,ComponentPad*
%ADD24C,1.600000*%
G04 #@! TD*
G04 #@! TA.AperFunction,ViaPad*
%ADD25C,0.800000*%
G04 #@! TD*
G04 #@! TA.AperFunction,Conductor*
%ADD26C,1.000000*%
G04 #@! TD*
G04 #@! TA.AperFunction,Conductor*
%ADD27C,2.000000*%
G04 #@! TD*
G04 #@! TA.AperFunction,Conductor*
%ADD28C,2.500000*%
G04 #@! TD*
G04 #@! TA.AperFunction,Conductor*
%ADD29C,5.000000*%
G04 #@! TD*
G04 #@! TA.AperFunction,Conductor*
%ADD30C,4.000000*%
G04 #@! TD*
G04 APERTURE END LIST*
D10*
X187960000Y-111285000D03*
X187960000Y-116285000D03*
G04 #@! TA.AperFunction,ComponentPad*
G36*
G01*
X189059999Y-122635000D02*
X186860001Y-122635000D01*
G75*
G02*
X186610000Y-122384999I0J250001D01*
G01*
X186610000Y-120185001D01*
G75*
G02*
X186860001Y-119935000I250001J0D01*
G01*
X189059999Y-119935000D01*
G75*
G02*
X189310000Y-120185001I0J-250001D01*
G01*
X189310000Y-122384999D01*
G75*
G02*
X189059999Y-122635000I-250001J0D01*
G01*
G37*
G04 #@! TD.AperFunction*
X187960000Y-90330000D03*
X187960000Y-95330000D03*
G04 #@! TA.AperFunction,ComponentPad*
G36*
G01*
X189059999Y-101680000D02*
X186860001Y-101680000D01*
G75*
G02*
X186610000Y-101429999I0J250001D01*
G01*
X186610000Y-99230001D01*
G75*
G02*
X186860001Y-98980000I250001J0D01*
G01*
X189059999Y-98980000D01*
G75*
G02*
X189310000Y-99230001I0J-250001D01*
G01*
X189310000Y-101429999D01*
G75*
G02*
X189059999Y-101680000I-250001J0D01*
G01*
G37*
G04 #@! TD.AperFunction*
D11*
X105410000Y-112395000D03*
X105410000Y-109855000D03*
X105410000Y-107315000D03*
X105410000Y-104775000D03*
X105410000Y-102235000D03*
D12*
X105410000Y-99695000D03*
D13*
X128270000Y-73660000D03*
X128270000Y-76200000D03*
D14*
X128270000Y-78740000D03*
D13*
X128270000Y-62230000D03*
X128270000Y-64770000D03*
D14*
X128270000Y-67310000D03*
D15*
X137160000Y-109855000D03*
X129540000Y-102235000D03*
X134620000Y-109855000D03*
X132080000Y-102235000D03*
X132080000Y-109855000D03*
X134620000Y-102235000D03*
X129540000Y-109855000D03*
D16*
X137160000Y-102235000D03*
D17*
X144018000Y-118110000D03*
D18*
X144018000Y-110490000D03*
D17*
X144780000Y-124460000D03*
D18*
X144780000Y-132080000D03*
D17*
X144018000Y-93980000D03*
D18*
X144018000Y-101600000D03*
D17*
X144780000Y-87630000D03*
D18*
X144780000Y-80010000D03*
D17*
X137160000Y-99060000D03*
D18*
X129540000Y-99060000D03*
D17*
X137160000Y-113030000D03*
D18*
X129540000Y-113030000D03*
D17*
X137160000Y-96520000D03*
D18*
X129540000Y-96520000D03*
D17*
X137160000Y-115570000D03*
D18*
X129540000Y-115570000D03*
D17*
X129540000Y-93980000D03*
D18*
X129540000Y-86360000D03*
D17*
X129540000Y-118110000D03*
D18*
X129540000Y-125730000D03*
D17*
X119380000Y-100330000D03*
D18*
X127000000Y-100330000D03*
D17*
X119380000Y-111760000D03*
D18*
X127000000Y-111760000D03*
X109220000Y-86360000D03*
D17*
X109220000Y-93980000D03*
X109220000Y-118110000D03*
D18*
X109220000Y-125730000D03*
D17*
X109220000Y-104140000D03*
D18*
X109220000Y-96520000D03*
D17*
X109220000Y-107950000D03*
D18*
X109220000Y-115570000D03*
D19*
X149860000Y-111125000D03*
D20*
X149860000Y-116575000D03*
X149860000Y-122025000D03*
D19*
X149860000Y-137795000D03*
D20*
X149860000Y-143245000D03*
X149860000Y-148695000D03*
X149860000Y-101070000D03*
X149860000Y-95620000D03*
D19*
X149860000Y-90170000D03*
D20*
X149860000Y-74370000D03*
X149860000Y-68920000D03*
D19*
X149860000Y-63470000D03*
D10*
X102870000Y-80485000D03*
X102870000Y-75485000D03*
G04 #@! TA.AperFunction,ComponentPad*
G36*
G01*
X101770001Y-69135000D02*
X103969999Y-69135000D01*
G75*
G02*
X104220000Y-69385001I0J-250001D01*
G01*
X104220000Y-71584999D01*
G75*
G02*
X103969999Y-71835000I-250001J0D01*
G01*
X101770001Y-71835000D01*
G75*
G02*
X101520000Y-71584999I0J250001D01*
G01*
X101520000Y-69385001D01*
G75*
G02*
X101770001Y-69135000I250001J0D01*
G01*
G37*
G04 #@! TD.AperFunction*
D11*
X101600000Y-109855000D03*
X101600000Y-107315000D03*
X101600000Y-104775000D03*
D12*
X101600000Y-102235000D03*
D21*
X140970000Y-115570000D03*
D22*
X140970000Y-110490000D03*
D21*
X140970000Y-124460000D03*
D22*
X140970000Y-119380000D03*
D21*
X140970000Y-96520000D03*
D22*
X140970000Y-101600000D03*
D21*
X140970000Y-87630000D03*
D22*
X140970000Y-92710000D03*
D21*
X112395000Y-90170000D03*
D22*
X112395000Y-95250000D03*
D21*
X116205000Y-95250000D03*
D22*
X116205000Y-90170000D03*
D21*
X112395000Y-121285000D03*
D22*
X112395000Y-116205000D03*
D21*
X116205000Y-116205000D03*
D22*
X116205000Y-121285000D03*
D23*
X140890000Y-76200000D03*
D22*
X135890000Y-76200000D03*
D23*
X140890000Y-64770000D03*
D22*
X135890000Y-64770000D03*
D24*
X130810000Y-73700000D03*
X130810000Y-76200000D03*
X130810000Y-64730000D03*
X130810000Y-62230000D03*
X133390000Y-121920000D03*
X135890000Y-121920000D03*
X133390000Y-90170000D03*
X135890000Y-90170000D03*
X126920000Y-96520000D03*
X121920000Y-96520000D03*
X126920000Y-115570000D03*
X121920000Y-115570000D03*
X120960000Y-90170000D03*
X124460000Y-90170000D03*
X120960000Y-121920000D03*
X124460000Y-121920000D03*
X112395000Y-104060000D03*
X112395000Y-99060000D03*
X112395000Y-108030000D03*
X112395000Y-113030000D03*
D25*
X139065000Y-107315000D03*
X139065000Y-104775000D03*
D26*
X110620001Y-117979999D02*
X112395000Y-116205000D01*
X110620001Y-124329999D02*
X110620001Y-117979999D01*
X109220000Y-125730000D02*
X110620001Y-124329999D01*
X112395000Y-113030000D02*
X112395000Y-116205000D01*
X112395000Y-116205000D02*
X116205000Y-116205000D01*
X116205000Y-114935000D02*
X119380000Y-111760000D01*
X116205000Y-116205000D02*
X116205000Y-114935000D01*
X110620001Y-93475001D02*
X112395000Y-95250000D01*
X110620001Y-87760001D02*
X110620001Y-93475001D01*
X109220000Y-86360000D02*
X110620001Y-87760001D01*
X112395000Y-95250000D02*
X112395000Y-99060000D01*
X112395000Y-95250000D02*
X116205000Y-95250000D01*
X116205000Y-97155000D02*
X119380000Y-100330000D01*
X116205000Y-95250000D02*
X116205000Y-97155000D01*
X120419999Y-114849999D02*
X120419999Y-121379999D01*
X120419999Y-121379999D02*
X120960000Y-121920000D01*
X123509998Y-111760000D02*
X120419999Y-114849999D01*
X127000000Y-111760000D02*
X123509998Y-111760000D01*
X127635000Y-111760000D02*
X129540000Y-109855000D01*
X127000000Y-111760000D02*
X127635000Y-111760000D01*
X126920000Y-115570000D02*
X129540000Y-115570000D01*
X129540000Y-118110000D02*
X129540000Y-115570000D01*
X125730000Y-121920000D02*
X129540000Y-118110000D01*
X124460000Y-121920000D02*
X125730000Y-121920000D01*
X123509998Y-100330000D02*
X127000000Y-100330000D01*
X120160001Y-96980003D02*
X123509998Y-100330000D01*
X120160001Y-90969999D02*
X120160001Y-96980003D01*
X120960000Y-90170000D02*
X120160001Y-90969999D01*
X130305001Y-100460001D02*
X132080000Y-102235000D01*
X128737998Y-100330000D02*
X128867999Y-100460001D01*
X128867999Y-100460001D02*
X130305001Y-100460001D01*
X127000000Y-100330000D02*
X128737998Y-100330000D01*
X126920000Y-96520000D02*
X129540000Y-96520000D01*
X129540000Y-93980000D02*
X129540000Y-96520000D01*
X125730000Y-90170000D02*
X129540000Y-93980000D01*
X124460000Y-90170000D02*
X125730000Y-90170000D01*
X123760001Y-113729999D02*
X121920000Y-115570000D01*
X128840001Y-113729999D02*
X123760001Y-113729999D01*
X129540000Y-113030000D02*
X128840001Y-113729999D01*
X129540000Y-113030000D02*
X133350000Y-113030000D01*
X134620000Y-111760000D02*
X134620000Y-109855000D01*
X133350000Y-113030000D02*
X134620000Y-111760000D01*
X123760001Y-98360001D02*
X121920000Y-96520000D01*
X128840001Y-98360001D02*
X123760001Y-98360001D01*
X129540000Y-99060000D02*
X128840001Y-98360001D01*
X135759999Y-99732001D02*
X137160000Y-101132002D01*
X135759999Y-99564999D02*
X135759999Y-99732001D01*
X135255000Y-99060000D02*
X135759999Y-99564999D01*
X137160000Y-101132002D02*
X137160000Y-102235000D01*
X129540000Y-99060000D02*
X135255000Y-99060000D01*
X137160000Y-99060000D02*
X137160000Y-96520000D01*
X133390000Y-92750000D02*
X137160000Y-96520000D01*
X133390000Y-90170000D02*
X133390000Y-92750000D01*
D27*
X138430000Y-90170000D02*
X140970000Y-92710000D01*
X135890000Y-90170000D02*
X138430000Y-90170000D01*
X140970000Y-96520000D02*
X140970000Y-92710000D01*
D26*
X137160000Y-113030000D02*
X137160000Y-115570000D01*
X133390000Y-119340000D02*
X137160000Y-115570000D01*
X133390000Y-121920000D02*
X133390000Y-119340000D01*
D27*
X138430000Y-121920000D02*
X140970000Y-119380000D01*
X135890000Y-121920000D02*
X138430000Y-121920000D01*
X140970000Y-119380000D02*
X140970000Y-115570000D01*
D28*
X130810000Y-77105162D02*
X130810000Y-76200000D01*
X129175162Y-78740000D02*
X130810000Y-77105162D01*
X128270000Y-78740000D02*
X129175162Y-78740000D01*
X130810000Y-76200000D02*
X135890000Y-76200000D01*
X140890000Y-71200000D02*
X135890000Y-76200000D01*
X140890000Y-64770000D02*
X140890000Y-71200000D01*
X131640002Y-76200000D02*
X130810000Y-76200000D01*
X133060001Y-74780001D02*
X131640002Y-76200000D01*
X133060001Y-66980001D02*
X133060001Y-74780001D01*
X130810000Y-64730000D02*
X133060001Y-66980001D01*
X128527730Y-64730000D02*
X128378865Y-64878865D01*
X130810000Y-64730000D02*
X128527730Y-64730000D01*
X133060001Y-61149999D02*
X133060001Y-66980001D01*
X131600002Y-59690000D02*
X133060001Y-61149999D01*
X122286002Y-59690000D02*
X131600002Y-59690000D01*
D29*
X182325000Y-105965000D02*
X187960000Y-100330000D01*
X100410000Y-105965000D02*
X182325000Y-105965000D01*
X182640000Y-105965000D02*
X182325000Y-105965000D01*
X187960000Y-111285000D02*
X182640000Y-105965000D01*
X187960000Y-100330000D02*
X187960000Y-111285000D01*
D28*
X108976003Y-72999999D02*
X122286002Y-59690000D01*
X105355001Y-72999999D02*
X108976003Y-72999999D01*
X102870000Y-75485000D02*
X105355001Y-72999999D01*
X99299999Y-104854999D02*
X100410000Y-105965000D01*
X99299999Y-79055001D02*
X99299999Y-104854999D01*
X102870000Y-75485000D02*
X99299999Y-79055001D01*
D26*
X116205000Y-74295000D02*
X128270000Y-62230000D01*
X116205000Y-90170000D02*
X116205000Y-74295000D01*
X114095001Y-91870001D02*
X112395000Y-90170000D01*
X115341003Y-91870001D02*
X114095001Y-91870001D01*
X117905001Y-84024999D02*
X128270000Y-73660000D01*
X117905001Y-91730001D02*
X117905001Y-84024999D01*
X117765001Y-91870001D02*
X117905001Y-91730001D01*
X114095001Y-91870001D02*
X117765001Y-91870001D01*
X117905001Y-92010001D02*
X117765001Y-91870001D01*
X117905001Y-96422073D02*
X117905001Y-92010001D01*
X123717928Y-102235000D02*
X117905001Y-96422073D01*
X129540000Y-102235000D02*
X123717928Y-102235000D01*
D27*
X140970000Y-87630000D02*
X144780000Y-87630000D01*
X146409990Y-66920010D02*
X149860000Y-63470000D01*
X146409990Y-75384827D02*
X146409990Y-66920010D01*
X146680001Y-75654838D02*
X146409990Y-75384827D01*
X146680001Y-85729999D02*
X146680001Y-75654838D01*
X144780000Y-87630000D02*
X146680001Y-85729999D01*
X140970000Y-101600000D02*
X144018000Y-101600000D01*
X145918001Y-94111999D02*
X149860000Y-90170000D01*
X145918001Y-99699999D02*
X145918001Y-94111999D01*
X144018000Y-101600000D02*
X145918001Y-99699999D01*
X140970000Y-124460000D02*
X144780000Y-124460000D01*
X149860000Y-129540000D02*
X149860000Y-137795000D01*
X144780000Y-124460000D02*
X149860000Y-129540000D01*
X149225000Y-110490000D02*
X149860000Y-111125000D01*
X140970000Y-110490000D02*
X149225000Y-110490000D01*
D26*
X101600000Y-109855000D02*
X104140000Y-112395000D01*
X104140000Y-112395000D02*
X105410000Y-112395000D01*
X101600000Y-102235000D02*
X101600000Y-101600000D01*
X103505000Y-99695000D02*
X105410000Y-99695000D01*
X101600000Y-101600000D02*
X103505000Y-99695000D01*
X109220000Y-118110000D02*
X109220000Y-115570000D01*
X105410000Y-109855000D02*
X106680000Y-109855000D01*
X109220000Y-112395000D02*
X109220000Y-115570000D01*
X106680000Y-109855000D02*
X109220000Y-112395000D01*
X109220000Y-96520000D02*
X109220000Y-93980000D01*
X109220000Y-99627081D02*
X109220000Y-96520000D01*
X106612081Y-102235000D02*
X109220000Y-99627081D01*
X105410000Y-102235000D02*
X106612081Y-102235000D01*
D30*
X187960000Y-90330000D02*
X177960000Y-90330000D01*
X162000000Y-74370000D02*
X149860000Y-74370000D01*
X177960000Y-90330000D02*
X162000000Y-74370000D01*
X180573184Y-101070000D02*
X186313184Y-95330000D01*
X186313184Y-95330000D02*
X187960000Y-95330000D01*
X149860000Y-101070000D02*
X180573184Y-101070000D01*
X187960000Y-116285000D02*
X186303082Y-116285000D01*
X181949918Y-111972918D02*
X180642010Y-110665010D01*
X181991000Y-111972918D02*
X181949918Y-111972918D01*
X186303082Y-116285000D02*
X181991000Y-111972918D01*
X180642010Y-110665010D02*
X167464990Y-110665010D01*
X156105000Y-122025000D02*
X149860000Y-122025000D01*
X167464990Y-110665010D02*
X156105000Y-122025000D01*
X177699050Y-121285000D02*
X187960000Y-121285000D01*
X150289050Y-148695000D02*
X177699050Y-121285000D01*
X149860000Y-148695000D02*
X150289050Y-148695000D01*
M02*
