G04 #@! TF.GenerationSoftware,KiCad,Pcbnew,(5.1.9)-1*
G04 #@! TF.CreationDate,2022-04-07T18:54:58+09:00*
G04 #@! TF.ProjectId,digital_amp,64696769-7461-46c5-9f61-6d702e6b6963,rev?*
G04 #@! TF.SameCoordinates,Original*
G04 #@! TF.FileFunction,Soldermask,Bot*
G04 #@! TF.FilePolarity,Negative*
%FSLAX46Y46*%
G04 Gerber Fmt 4.6, Leading zero omitted, Abs format (unit mm)*
G04 Created by KiCad (PCBNEW (5.1.9)-1) date 2022-04-07 18:54:58*
%MOMM*%
%LPD*%
G01*
G04 APERTURE LIST*
%ADD10C,5.000000*%
%ADD11C,2.700000*%
%ADD12C,3.200000*%
%ADD13O,1.700000X1.700000*%
%ADD14R,1.700000X1.700000*%
%ADD15O,2.000000X1.905000*%
%ADD16R,2.000000X1.905000*%
%ADD17O,3.500000X3.500000*%
%ADD18O,1.600000X1.600000*%
%ADD19R,1.600000X1.600000*%
%ADD20O,1.400000X1.400000*%
%ADD21C,1.400000*%
%ADD22O,3.400000X3.400000*%
%ADD23R,4.500000X2.500000*%
%ADD24O,4.500000X2.500000*%
%ADD25O,2.000000X2.000000*%
%ADD26R,2.000000X2.000000*%
%ADD27C,2.000000*%
%ADD28C,1.600000*%
G04 APERTURE END LIST*
D10*
X141224000Y-82423000D02*
X122555000Y-82423000D01*
X143002000Y-84201000D02*
X141224000Y-82423000D01*
X143637000Y-84201000D02*
X143002000Y-84201000D01*
X160020000Y-77978000D02*
X151003000Y-68961000D01*
X160020000Y-140335000D02*
X160020000Y-77978000D01*
X157099000Y-143256000D02*
X160020000Y-140335000D01*
X149860000Y-143256000D02*
X157099000Y-143256000D01*
X149860000Y-95631000D02*
X154813000Y-95631000D01*
X124460000Y-76835000D02*
X121031000Y-80264000D01*
X120650000Y-80645000D02*
X106172000Y-80645000D01*
X122428000Y-82423000D02*
X120523000Y-80518000D01*
X152273000Y-84201000D02*
X143891000Y-84201000D01*
X154813000Y-86741000D02*
X152273000Y-84201000D01*
X154813000Y-113919000D02*
X154813000Y-86741000D01*
X152146000Y-116586000D02*
X154813000Y-113919000D01*
X149860000Y-116586000D02*
X152146000Y-116586000D01*
X127635000Y-69215000D02*
X110363000Y-69215000D01*
X127889000Y-68961000D02*
X127635000Y-69215000D01*
X151003000Y-68961000D02*
X127889000Y-68961000D01*
D11*
X187960000Y-111285000D03*
X187960000Y-116285000D03*
G36*
G01*
X189059999Y-122635000D02*
X186860001Y-122635000D01*
G75*
G02*
X186610000Y-122384999I0J250001D01*
G01*
X186610000Y-120185001D01*
G75*
G02*
X186860001Y-119935000I250001J0D01*
G01*
X189059999Y-119935000D01*
G75*
G02*
X189310000Y-120185001I0J-250001D01*
G01*
X189310000Y-122384999D01*
G75*
G02*
X189059999Y-122635000I-250001J0D01*
G01*
G37*
X187960000Y-90330000D03*
X187960000Y-95330000D03*
G36*
G01*
X189059999Y-101680000D02*
X186860001Y-101680000D01*
G75*
G02*
X186610000Y-101429999I0J250001D01*
G01*
X186610000Y-99230001D01*
G75*
G02*
X186860001Y-98980000I250001J0D01*
G01*
X189059999Y-98980000D01*
G75*
G02*
X189310000Y-99230001I0J-250001D01*
G01*
X189310000Y-101429999D01*
G75*
G02*
X189059999Y-101680000I-250001J0D01*
G01*
G37*
D12*
X189230000Y-62785000D03*
X189230000Y-150110000D03*
X101600000Y-150110000D03*
X101600000Y-62865000D03*
D13*
X105410000Y-112395000D03*
X105410000Y-109855000D03*
X105410000Y-107315000D03*
X105410000Y-104775000D03*
X105410000Y-102235000D03*
D14*
X105410000Y-99695000D03*
D15*
X128270000Y-73660000D03*
X128270000Y-76200000D03*
D16*
X128270000Y-78740000D03*
D17*
X112470000Y-76200000D03*
D15*
X128270000Y-62230000D03*
X128270000Y-64770000D03*
D16*
X128270000Y-67310000D03*
D17*
X112470000Y-64770000D03*
D18*
X137160000Y-109855000D03*
X129540000Y-102235000D03*
X134620000Y-109855000D03*
X132080000Y-102235000D03*
X132080000Y-109855000D03*
X134620000Y-102235000D03*
X129540000Y-109855000D03*
D19*
X137160000Y-102235000D03*
D20*
X144018000Y-118110000D03*
D21*
X144018000Y-110490000D03*
D20*
X144780000Y-124460000D03*
D21*
X144780000Y-132080000D03*
D20*
X144018000Y-93980000D03*
D21*
X144018000Y-101600000D03*
D20*
X144780000Y-87630000D03*
D21*
X144780000Y-80010000D03*
D20*
X137160000Y-99060000D03*
D21*
X129540000Y-99060000D03*
D20*
X137160000Y-113030000D03*
D21*
X129540000Y-113030000D03*
D20*
X137160000Y-96520000D03*
D21*
X129540000Y-96520000D03*
D20*
X137160000Y-115570000D03*
D21*
X129540000Y-115570000D03*
D20*
X129540000Y-93980000D03*
D21*
X129540000Y-86360000D03*
D20*
X129540000Y-118110000D03*
D21*
X129540000Y-125730000D03*
D20*
X119380000Y-100330000D03*
D21*
X127000000Y-100330000D03*
D20*
X119380000Y-111760000D03*
D21*
X127000000Y-111760000D03*
X109220000Y-86360000D03*
D20*
X109220000Y-93980000D03*
X109220000Y-118110000D03*
D21*
X109220000Y-125730000D03*
D20*
X109220000Y-104140000D03*
D21*
X109220000Y-96520000D03*
D20*
X109220000Y-107950000D03*
D21*
X109220000Y-115570000D03*
D22*
X168660000Y-116575000D03*
D23*
X149860000Y-111125000D03*
D24*
X149860000Y-116575000D03*
X149860000Y-122025000D03*
D22*
X168660000Y-143245000D03*
D23*
X149860000Y-137795000D03*
D24*
X149860000Y-143245000D03*
X149860000Y-148695000D03*
X149860000Y-101070000D03*
X149860000Y-95620000D03*
D23*
X149860000Y-90170000D03*
D22*
X168660000Y-95620000D03*
D24*
X149860000Y-74370000D03*
X149860000Y-68920000D03*
D23*
X149860000Y-63470000D03*
D22*
X168660000Y-68920000D03*
D11*
X102870000Y-80485000D03*
X102870000Y-75485000D03*
G36*
G01*
X101770001Y-69135000D02*
X103969999Y-69135000D01*
G75*
G02*
X104220000Y-69385001I0J-250001D01*
G01*
X104220000Y-71584999D01*
G75*
G02*
X103969999Y-71835000I-250001J0D01*
G01*
X101770001Y-71835000D01*
G75*
G02*
X101520000Y-71584999I0J250001D01*
G01*
X101520000Y-69385001D01*
G75*
G02*
X101770001Y-69135000I250001J0D01*
G01*
G37*
D13*
X101600000Y-109855000D03*
X101600000Y-107315000D03*
X101600000Y-104775000D03*
D14*
X101600000Y-102235000D03*
D25*
X140970000Y-115570000D03*
D26*
X140970000Y-110490000D03*
D25*
X140970000Y-124460000D03*
D26*
X140970000Y-119380000D03*
D25*
X140970000Y-96520000D03*
D26*
X140970000Y-101600000D03*
D25*
X140970000Y-87630000D03*
D26*
X140970000Y-92710000D03*
D25*
X112395000Y-90170000D03*
D26*
X112395000Y-95250000D03*
D25*
X116205000Y-95250000D03*
D26*
X116205000Y-90170000D03*
D25*
X112395000Y-121285000D03*
D26*
X112395000Y-116205000D03*
D25*
X116205000Y-116205000D03*
D26*
X116205000Y-121285000D03*
D27*
X140890000Y-76200000D03*
D26*
X135890000Y-76200000D03*
D27*
X140890000Y-64770000D03*
D26*
X135890000Y-64770000D03*
D28*
X130810000Y-73700000D03*
X130810000Y-76200000D03*
X130810000Y-64730000D03*
X130810000Y-62230000D03*
X133390000Y-121920000D03*
X135890000Y-121920000D03*
X133390000Y-90170000D03*
X135890000Y-90170000D03*
X126920000Y-96520000D03*
X121920000Y-96520000D03*
X126920000Y-115570000D03*
X121920000Y-115570000D03*
X120960000Y-90170000D03*
X124460000Y-90170000D03*
X120960000Y-121920000D03*
X124460000Y-121920000D03*
X112395000Y-104060000D03*
X112395000Y-99060000D03*
X112395000Y-108030000D03*
X112395000Y-113030000D03*
M02*
