M48
; DRILL file {KiCad (5.1.9)-1} date 04/07/22 18:55:02
; FORMAT={-:-/ absolute / metric / decimal}
; #@! TF.CreationDate,2022-04-07T18:55:02+09:00
; #@! TF.GenerationSoftware,Kicad,Pcbnew,(5.1.9)-1
FMAT,2
METRIC
T1C0.400
T2C0.700
T3C0.800
T4C1.000
T5C1.200
T6C1.500
T7C1.700
T8C3.200
T9C3.400
T10C3.500
%
G90
G05
T1
X139.065Y-104.775
X139.065Y-107.315
T2
X109.22Y-86.36
X109.22Y-93.98
X109.22Y-96.52
X109.22Y-104.14
X109.22Y-107.95
X109.22Y-115.57
X109.22Y-118.11
X109.22Y-125.73
X119.38Y-100.33
X119.38Y-111.76
X127.0Y-100.33
X127.0Y-111.76
X129.54Y-86.36
X129.54Y-93.98
X129.54Y-96.52
X129.54Y-99.06
X129.54Y-113.03
X129.54Y-115.57
X129.54Y-118.11
X129.54Y-125.73
X137.16Y-96.52
X137.16Y-99.06
X137.16Y-113.03
X137.16Y-115.57
X144.018Y-93.98
X144.018Y-101.6
X144.018Y-110.49
X144.018Y-118.11
X144.78Y-80.01
X144.78Y-87.63
X144.78Y-124.46
X144.78Y-132.08
T3
X112.395Y-99.06
X112.395Y-104.06
X112.395Y-108.03
X112.395Y-113.03
X120.96Y-90.17
X120.96Y-121.92
X121.92Y-96.52
X121.92Y-115.57
X124.46Y-90.17
X124.46Y-121.92
X126.92Y-96.52
X126.92Y-115.57
X129.54Y-102.235
X129.54Y-109.855
X130.81Y-62.23
X130.81Y-64.73
X130.81Y-73.7
X130.81Y-76.2
X132.08Y-102.235
X132.08Y-109.855
X133.39Y-90.17
X133.39Y-121.92
X134.62Y-102.235
X134.62Y-109.855
X135.89Y-90.17
X135.89Y-121.92
X137.16Y-102.235
X137.16Y-109.855
T4
X101.6Y-102.235
X101.6Y-104.775
X101.6Y-107.315
X101.6Y-109.855
X105.41Y-99.695
X105.41Y-102.235
X105.41Y-104.775
X105.41Y-107.315
X105.41Y-109.855
X105.41Y-112.395
X112.395Y-90.17
X112.395Y-95.25
X112.395Y-116.205
X112.395Y-121.285
X116.205Y-90.17
X116.205Y-95.25
X116.205Y-116.205
X116.205Y-121.285
X135.89Y-64.77
X135.89Y-76.2
X140.89Y-64.77
X140.89Y-76.2
X140.97Y-87.63
X140.97Y-92.71
X140.97Y-96.52
X140.97Y-101.6
X140.97Y-110.49
X140.97Y-115.57
X140.97Y-119.38
X140.97Y-124.46
T5
X128.27Y-62.23
X128.27Y-64.77
X128.27Y-67.31
X128.27Y-73.66
X128.27Y-76.2
X128.27Y-78.74
T6
X149.86Y-63.47
X149.86Y-68.92
X149.86Y-74.37
X149.86Y-90.17
X149.86Y-95.62
X149.86Y-101.07
X149.86Y-111.125
X149.86Y-116.575
X149.86Y-122.025
X149.86Y-137.795
X149.86Y-143.245
X149.86Y-148.695
T7
X102.87Y-70.485
X102.87Y-75.485
X102.87Y-80.485
X187.96Y-90.33
X187.96Y-95.33
X187.96Y-100.33
X187.96Y-111.285
X187.96Y-116.285
X187.96Y-121.285
T8
X101.6Y-62.865
X101.6Y-150.11
X189.23Y-62.785
X189.23Y-150.11
T9
X168.66Y-68.92
X168.66Y-95.62
X168.66Y-116.575
X168.66Y-143.245
T10
X112.47Y-64.77
X112.47Y-76.2
T0
M30
