G04 #@! TF.GenerationSoftware,KiCad,Pcbnew,(5.1.9)-1*
G04 #@! TF.CreationDate,2022-04-07T18:54:58+09:00*
G04 #@! TF.ProjectId,digital_amp,64696769-7461-46c5-9f61-6d702e6b6963,rev?*
G04 #@! TF.SameCoordinates,Original*
G04 #@! TF.FileFunction,Legend,Top*
G04 #@! TF.FilePolarity,Positive*
%FSLAX46Y46*%
G04 Gerber Fmt 4.6, Leading zero omitted, Abs format (unit mm)*
G04 Created by KiCad (PCBNEW (5.1.9)-1) date 2022-04-07 18:54:58*
%MOMM*%
%LPD*%
G01*
G04 APERTURE LIST*
%ADD10C,0.150000*%
%ADD11C,0.120000*%
G04 APERTURE END LIST*
D10*
X103475523Y-134025666D02*
X103951714Y-134025666D01*
X103380285Y-134311380D02*
X103713619Y-133311380D01*
X104046952Y-134311380D01*
X104380285Y-133930428D02*
X105142190Y-133930428D01*
X105951714Y-133787571D02*
X106094571Y-133835190D01*
X106142190Y-133882809D01*
X106189809Y-133978047D01*
X106189809Y-134120904D01*
X106142190Y-134216142D01*
X106094571Y-134263761D01*
X105999333Y-134311380D01*
X105618380Y-134311380D01*
X105618380Y-133311380D01*
X105951714Y-133311380D01*
X106046952Y-133359000D01*
X106094571Y-133406619D01*
X106142190Y-133501857D01*
X106142190Y-133597095D01*
X106094571Y-133692333D01*
X106046952Y-133739952D01*
X105951714Y-133787571D01*
X105618380Y-133787571D01*
X107808857Y-134263761D02*
X107713619Y-134311380D01*
X107523142Y-134311380D01*
X107427904Y-134263761D01*
X107380285Y-134216142D01*
X107332666Y-134120904D01*
X107332666Y-133835190D01*
X107380285Y-133739952D01*
X107427904Y-133692333D01*
X107523142Y-133644714D01*
X107713619Y-133644714D01*
X107808857Y-133692333D01*
X108380285Y-134311380D02*
X108285047Y-134263761D01*
X108237428Y-134168523D01*
X108237428Y-133311380D01*
X109189809Y-134311380D02*
X109189809Y-133787571D01*
X109142190Y-133692333D01*
X109046952Y-133644714D01*
X108856476Y-133644714D01*
X108761238Y-133692333D01*
X109189809Y-134263761D02*
X109094571Y-134311380D01*
X108856476Y-134311380D01*
X108761238Y-134263761D01*
X108713619Y-134168523D01*
X108713619Y-134073285D01*
X108761238Y-133978047D01*
X108856476Y-133930428D01*
X109094571Y-133930428D01*
X109189809Y-133882809D01*
X109618380Y-134263761D02*
X109713619Y-134311380D01*
X109904095Y-134311380D01*
X109999333Y-134263761D01*
X110046952Y-134168523D01*
X110046952Y-134120904D01*
X109999333Y-134025666D01*
X109904095Y-133978047D01*
X109761238Y-133978047D01*
X109666000Y-133930428D01*
X109618380Y-133835190D01*
X109618380Y-133787571D01*
X109666000Y-133692333D01*
X109761238Y-133644714D01*
X109904095Y-133644714D01*
X109999333Y-133692333D01*
X110427904Y-134263761D02*
X110523142Y-134311380D01*
X110713619Y-134311380D01*
X110808857Y-134263761D01*
X110856476Y-134168523D01*
X110856476Y-134120904D01*
X110808857Y-134025666D01*
X110713619Y-133978047D01*
X110570761Y-133978047D01*
X110475523Y-133930428D01*
X110427904Y-133835190D01*
X110427904Y-133787571D01*
X110475523Y-133692333D01*
X110570761Y-133644714D01*
X110713619Y-133644714D01*
X110808857Y-133692333D01*
X111999333Y-134025666D02*
X112475523Y-134025666D01*
X111904095Y-134311380D02*
X112237428Y-133311380D01*
X112570761Y-134311380D01*
X113332666Y-133644714D02*
X113332666Y-134311380D01*
X112904095Y-133644714D02*
X112904095Y-134168523D01*
X112951714Y-134263761D01*
X113046952Y-134311380D01*
X113189809Y-134311380D01*
X113285047Y-134263761D01*
X113332666Y-134216142D01*
X114237428Y-134311380D02*
X114237428Y-133311380D01*
X114237428Y-134263761D02*
X114142190Y-134311380D01*
X113951714Y-134311380D01*
X113856476Y-134263761D01*
X113808857Y-134216142D01*
X113761238Y-134120904D01*
X113761238Y-133835190D01*
X113808857Y-133739952D01*
X113856476Y-133692333D01*
X113951714Y-133644714D01*
X114142190Y-133644714D01*
X114237428Y-133692333D01*
X114713619Y-134311380D02*
X114713619Y-133644714D01*
X114713619Y-133311380D02*
X114666000Y-133359000D01*
X114713619Y-133406619D01*
X114761238Y-133359000D01*
X114713619Y-133311380D01*
X114713619Y-133406619D01*
X115332666Y-134311380D02*
X115237428Y-134263761D01*
X115189809Y-134216142D01*
X115142190Y-134120904D01*
X115142190Y-133835190D01*
X115189809Y-133739952D01*
X115237428Y-133692333D01*
X115332666Y-133644714D01*
X115475523Y-133644714D01*
X115570761Y-133692333D01*
X115618380Y-133739952D01*
X115666000Y-133835190D01*
X115666000Y-134120904D01*
X115618380Y-134216142D01*
X115570761Y-134263761D01*
X115475523Y-134311380D01*
X115332666Y-134311380D01*
X116808857Y-134025666D02*
X117285047Y-134025666D01*
X116713619Y-134311380D02*
X117046952Y-133311380D01*
X117380285Y-134311380D01*
X117713619Y-134311380D02*
X117713619Y-133644714D01*
X117713619Y-133739952D02*
X117761238Y-133692333D01*
X117856476Y-133644714D01*
X117999333Y-133644714D01*
X118094571Y-133692333D01*
X118142190Y-133787571D01*
X118142190Y-134311380D01*
X118142190Y-133787571D02*
X118189809Y-133692333D01*
X118285047Y-133644714D01*
X118427904Y-133644714D01*
X118523142Y-133692333D01*
X118570761Y-133787571D01*
X118570761Y-134311380D01*
X119046952Y-133644714D02*
X119046952Y-134644714D01*
X119046952Y-133692333D02*
X119142190Y-133644714D01*
X119332666Y-133644714D01*
X119427904Y-133692333D01*
X119475523Y-133739952D01*
X119523142Y-133835190D01*
X119523142Y-134120904D01*
X119475523Y-134216142D01*
X119427904Y-134263761D01*
X119332666Y-134311380D01*
X119142190Y-134311380D01*
X119046952Y-134263761D01*
X120618380Y-133644714D02*
X120808857Y-134311380D01*
X120999333Y-133835190D01*
X121189809Y-134311380D01*
X121380285Y-133644714D01*
X121761238Y-134311380D02*
X121761238Y-133644714D01*
X121761238Y-133311380D02*
X121713619Y-133359000D01*
X121761238Y-133406619D01*
X121808857Y-133359000D01*
X121761238Y-133311380D01*
X121761238Y-133406619D01*
X122094571Y-133644714D02*
X122475523Y-133644714D01*
X122237428Y-133311380D02*
X122237428Y-134168523D01*
X122285047Y-134263761D01*
X122380285Y-134311380D01*
X122475523Y-134311380D01*
X122808857Y-134311380D02*
X122808857Y-133311380D01*
X123237428Y-134311380D02*
X123237428Y-133787571D01*
X123189809Y-133692333D01*
X123094571Y-133644714D01*
X122951714Y-133644714D01*
X122856476Y-133692333D01*
X122808857Y-133739952D01*
X124618380Y-134311380D02*
X124523142Y-134263761D01*
X124475523Y-134216142D01*
X124427904Y-134120904D01*
X124427904Y-133835190D01*
X124475523Y-133739952D01*
X124523142Y-133692333D01*
X124618380Y-133644714D01*
X124761238Y-133644714D01*
X124856476Y-133692333D01*
X124904095Y-133739952D01*
X124951714Y-133835190D01*
X124951714Y-134120904D01*
X124904095Y-134216142D01*
X124856476Y-134263761D01*
X124761238Y-134311380D01*
X124618380Y-134311380D01*
X125380285Y-133644714D02*
X125380285Y-134644714D01*
X125380285Y-133692333D02*
X125475523Y-133644714D01*
X125665999Y-133644714D01*
X125761238Y-133692333D01*
X125808857Y-133739952D01*
X125856476Y-133835190D01*
X125856476Y-134120904D01*
X125808857Y-134216142D01*
X125761238Y-134263761D01*
X125665999Y-134311380D01*
X125475523Y-134311380D01*
X125380285Y-134263761D01*
X126285047Y-133930428D02*
X127046952Y-133930428D01*
X127951714Y-134311380D02*
X127951714Y-133787571D01*
X127904095Y-133692333D01*
X127808857Y-133644714D01*
X127618380Y-133644714D01*
X127523142Y-133692333D01*
X127951714Y-134263761D02*
X127856476Y-134311380D01*
X127618380Y-134311380D01*
X127523142Y-134263761D01*
X127475523Y-134168523D01*
X127475523Y-134073285D01*
X127523142Y-133978047D01*
X127618380Y-133930428D01*
X127856476Y-133930428D01*
X127951714Y-133882809D01*
X128427904Y-134311380D02*
X128427904Y-133644714D01*
X128427904Y-133739952D02*
X128475523Y-133692333D01*
X128570761Y-133644714D01*
X128713619Y-133644714D01*
X128808857Y-133692333D01*
X128856476Y-133787571D01*
X128856476Y-134311380D01*
X128856476Y-133787571D02*
X128904095Y-133692333D01*
X128999333Y-133644714D01*
X129142190Y-133644714D01*
X129237428Y-133692333D01*
X129285047Y-133787571D01*
X129285047Y-134311380D01*
X129761238Y-133644714D02*
X129761238Y-134644714D01*
X129761238Y-133692333D02*
X129856476Y-133644714D01*
X130046952Y-133644714D01*
X130142190Y-133692333D01*
X130189809Y-133739952D01*
X130237428Y-133835190D01*
X130237428Y-134120904D01*
X130189809Y-134216142D01*
X130142190Y-134263761D01*
X130046952Y-134311380D01*
X129856476Y-134311380D01*
X129761238Y-134263761D01*
X131856476Y-134311380D02*
X131856476Y-133787571D01*
X131808857Y-133692333D01*
X131713619Y-133644714D01*
X131523142Y-133644714D01*
X131427904Y-133692333D01*
X131856476Y-134263761D02*
X131761238Y-134311380D01*
X131523142Y-134311380D01*
X131427904Y-134263761D01*
X131380285Y-134168523D01*
X131380285Y-134073285D01*
X131427904Y-133978047D01*
X131523142Y-133930428D01*
X131761238Y-133930428D01*
X131856476Y-133882809D01*
X132332666Y-133644714D02*
X132332666Y-134311380D01*
X132332666Y-133739952D02*
X132380285Y-133692333D01*
X132475523Y-133644714D01*
X132618380Y-133644714D01*
X132713619Y-133692333D01*
X132761238Y-133787571D01*
X132761238Y-134311380D01*
X133665999Y-134311380D02*
X133665999Y-133311380D01*
X133665999Y-134263761D02*
X133570761Y-134311380D01*
X133380285Y-134311380D01*
X133285047Y-134263761D01*
X133237428Y-134216142D01*
X133189809Y-134120904D01*
X133189809Y-133835190D01*
X133237428Y-133739952D01*
X133285047Y-133692333D01*
X133380285Y-133644714D01*
X133570761Y-133644714D01*
X133665999Y-133692333D01*
X134856476Y-134263761D02*
X134999333Y-134311380D01*
X135237428Y-134311380D01*
X135332666Y-134263761D01*
X135380285Y-134216142D01*
X135427904Y-134120904D01*
X135427904Y-134025666D01*
X135380285Y-133930428D01*
X135332666Y-133882809D01*
X135237428Y-133835190D01*
X135046952Y-133787571D01*
X134951714Y-133739952D01*
X134904095Y-133692333D01*
X134856476Y-133597095D01*
X134856476Y-133501857D01*
X134904095Y-133406619D01*
X134951714Y-133359000D01*
X135046952Y-133311380D01*
X135285047Y-133311380D01*
X135427904Y-133359000D01*
X135856476Y-133787571D02*
X136189809Y-133787571D01*
X136332666Y-134311380D02*
X135856476Y-134311380D01*
X135856476Y-133311380D01*
X136332666Y-133311380D01*
X136761238Y-134311380D02*
X136761238Y-133311380D01*
X137142190Y-133311380D01*
X137237428Y-133359000D01*
X137285047Y-133406619D01*
X137332666Y-133501857D01*
X137332666Y-133644714D01*
X137285047Y-133739952D01*
X137237428Y-133787571D01*
X137142190Y-133835190D01*
X136761238Y-133835190D01*
X137761238Y-134311380D02*
X137761238Y-133311380D01*
X138142190Y-133311380D01*
X138237428Y-133359000D01*
X138285047Y-133406619D01*
X138332666Y-133501857D01*
X138332666Y-133644714D01*
X138285047Y-133739952D01*
X138237428Y-133787571D01*
X138142190Y-133835190D01*
X137761238Y-133835190D01*
X117427904Y-135961380D02*
X117427904Y-134961380D01*
X117427904Y-135913761D02*
X117332666Y-135961380D01*
X117142190Y-135961380D01*
X117046952Y-135913761D01*
X116999333Y-135866142D01*
X116951714Y-135770904D01*
X116951714Y-135485190D01*
X116999333Y-135389952D01*
X117046952Y-135342333D01*
X117142190Y-135294714D01*
X117332666Y-135294714D01*
X117427904Y-135342333D01*
X118285047Y-135913761D02*
X118189809Y-135961380D01*
X117999333Y-135961380D01*
X117904095Y-135913761D01*
X117856476Y-135818523D01*
X117856476Y-135437571D01*
X117904095Y-135342333D01*
X117999333Y-135294714D01*
X118189809Y-135294714D01*
X118285047Y-135342333D01*
X118332666Y-135437571D01*
X118332666Y-135532809D01*
X117856476Y-135628047D01*
X118713619Y-135913761D02*
X118808857Y-135961380D01*
X118999333Y-135961380D01*
X119094571Y-135913761D01*
X119142190Y-135818523D01*
X119142190Y-135770904D01*
X119094571Y-135675666D01*
X118999333Y-135628047D01*
X118856476Y-135628047D01*
X118761238Y-135580428D01*
X118713619Y-135485190D01*
X118713619Y-135437571D01*
X118761238Y-135342333D01*
X118856476Y-135294714D01*
X118999333Y-135294714D01*
X119094571Y-135342333D01*
X119570761Y-135961380D02*
X119570761Y-135294714D01*
X119570761Y-134961380D02*
X119523142Y-135009000D01*
X119570761Y-135056619D01*
X119618380Y-135009000D01*
X119570761Y-134961380D01*
X119570761Y-135056619D01*
X120475523Y-135294714D02*
X120475523Y-136104238D01*
X120427904Y-136199476D01*
X120380285Y-136247095D01*
X120285047Y-136294714D01*
X120142190Y-136294714D01*
X120046952Y-136247095D01*
X120475523Y-135913761D02*
X120380285Y-135961380D01*
X120189809Y-135961380D01*
X120094571Y-135913761D01*
X120046952Y-135866142D01*
X119999333Y-135770904D01*
X119999333Y-135485190D01*
X120046952Y-135389952D01*
X120094571Y-135342333D01*
X120189809Y-135294714D01*
X120380285Y-135294714D01*
X120475523Y-135342333D01*
X120951714Y-135294714D02*
X120951714Y-135961380D01*
X120951714Y-135389952D02*
X120999333Y-135342333D01*
X121094571Y-135294714D01*
X121237428Y-135294714D01*
X121332666Y-135342333D01*
X121380285Y-135437571D01*
X121380285Y-135961380D01*
X122237428Y-135913761D02*
X122142190Y-135961380D01*
X121951714Y-135961380D01*
X121856476Y-135913761D01*
X121808857Y-135818523D01*
X121808857Y-135437571D01*
X121856476Y-135342333D01*
X121951714Y-135294714D01*
X122142190Y-135294714D01*
X122237428Y-135342333D01*
X122285047Y-135437571D01*
X122285047Y-135532809D01*
X121808857Y-135628047D01*
X123142190Y-135961380D02*
X123142190Y-134961380D01*
X123142190Y-135913761D02*
X123046952Y-135961380D01*
X122856476Y-135961380D01*
X122761238Y-135913761D01*
X122713619Y-135866142D01*
X122666000Y-135770904D01*
X122666000Y-135485190D01*
X122713619Y-135389952D01*
X122761238Y-135342333D01*
X122856476Y-135294714D01*
X123046952Y-135294714D01*
X123142190Y-135342333D01*
X124380285Y-135961380D02*
X124380285Y-134961380D01*
X124380285Y-135342333D02*
X124475523Y-135294714D01*
X124666000Y-135294714D01*
X124761238Y-135342333D01*
X124808857Y-135389952D01*
X124856476Y-135485190D01*
X124856476Y-135770904D01*
X124808857Y-135866142D01*
X124761238Y-135913761D01*
X124666000Y-135961380D01*
X124475523Y-135961380D01*
X124380285Y-135913761D01*
X125189809Y-135294714D02*
X125427904Y-135961380D01*
X125666000Y-135294714D02*
X125427904Y-135961380D01*
X125332666Y-136199476D01*
X125285047Y-136247095D01*
X125189809Y-136294714D01*
X113832666Y-137611380D02*
X113832666Y-136611380D01*
X114166000Y-137325666D01*
X114499333Y-136611380D01*
X114499333Y-137611380D01*
X115404095Y-137611380D02*
X115404095Y-137087571D01*
X115356476Y-136992333D01*
X115261238Y-136944714D01*
X115070761Y-136944714D01*
X114975523Y-136992333D01*
X115404095Y-137563761D02*
X115308857Y-137611380D01*
X115070761Y-137611380D01*
X114975523Y-137563761D01*
X114927904Y-137468523D01*
X114927904Y-137373285D01*
X114975523Y-137278047D01*
X115070761Y-137230428D01*
X115308857Y-137230428D01*
X115404095Y-137182809D01*
X115737428Y-136944714D02*
X116118380Y-136944714D01*
X115880285Y-136611380D02*
X115880285Y-137468523D01*
X115927904Y-137563761D01*
X116023142Y-137611380D01*
X116118380Y-137611380D01*
X116308857Y-136944714D02*
X116689809Y-136944714D01*
X116451714Y-136611380D02*
X116451714Y-137468523D01*
X116499333Y-137563761D01*
X116594571Y-137611380D01*
X116689809Y-137611380D01*
X117023142Y-137611380D02*
X117023142Y-136611380D01*
X117451714Y-137611380D02*
X117451714Y-137087571D01*
X117404095Y-136992333D01*
X117308857Y-136944714D01*
X117166000Y-136944714D01*
X117070761Y-136992333D01*
X117023142Y-137039952D01*
X118308857Y-137563761D02*
X118213619Y-137611380D01*
X118023142Y-137611380D01*
X117927904Y-137563761D01*
X117880285Y-137468523D01*
X117880285Y-137087571D01*
X117927904Y-136992333D01*
X118023142Y-136944714D01*
X118213619Y-136944714D01*
X118308857Y-136992333D01*
X118356476Y-137087571D01*
X118356476Y-137182809D01*
X117880285Y-137278047D01*
X118689809Y-136944714D02*
X118880285Y-137611380D01*
X119070761Y-137135190D01*
X119261238Y-137611380D01*
X119451714Y-136944714D01*
X120594571Y-137611380D02*
X120594571Y-136611380D01*
X120594571Y-137087571D02*
X121166000Y-137087571D01*
X121166000Y-137611380D02*
X121166000Y-136611380D01*
X121546952Y-136944714D02*
X121737428Y-137611380D01*
X121927904Y-137135190D01*
X122118380Y-137611380D01*
X122308857Y-136944714D01*
X123118380Y-137611380D02*
X123118380Y-137087571D01*
X123070761Y-136992333D01*
X122975523Y-136944714D01*
X122785047Y-136944714D01*
X122689809Y-136992333D01*
X123118380Y-137563761D02*
X123023142Y-137611380D01*
X122785047Y-137611380D01*
X122689809Y-137563761D01*
X122642190Y-137468523D01*
X122642190Y-137373285D01*
X122689809Y-137278047D01*
X122785047Y-137230428D01*
X123023142Y-137230428D01*
X123118380Y-137182809D01*
X123594571Y-136944714D02*
X123594571Y-137611380D01*
X123594571Y-137039952D02*
X123642190Y-136992333D01*
X123737428Y-136944714D01*
X123880285Y-136944714D01*
X123975523Y-136992333D01*
X124023142Y-137087571D01*
X124023142Y-137611380D01*
X124927904Y-136944714D02*
X124927904Y-137754238D01*
X124880285Y-137849476D01*
X124832666Y-137897095D01*
X124737428Y-137944714D01*
X124594571Y-137944714D01*
X124499333Y-137897095D01*
X124927904Y-137563761D02*
X124832666Y-137611380D01*
X124642190Y-137611380D01*
X124546952Y-137563761D01*
X124499333Y-137516142D01*
X124451714Y-137420904D01*
X124451714Y-137135190D01*
X124499333Y-137039952D01*
X124546952Y-136992333D01*
X124642190Y-136944714D01*
X124832666Y-136944714D01*
X124927904Y-136992333D01*
X126118380Y-136706619D02*
X126166000Y-136659000D01*
X126261238Y-136611380D01*
X126499333Y-136611380D01*
X126594571Y-136659000D01*
X126642190Y-136706619D01*
X126689809Y-136801857D01*
X126689809Y-136897095D01*
X126642190Y-137039952D01*
X126070761Y-137611380D01*
X126689809Y-137611380D01*
X127308857Y-136611380D02*
X127404095Y-136611380D01*
X127499333Y-136659000D01*
X127546952Y-136706619D01*
X127594571Y-136801857D01*
X127642190Y-136992333D01*
X127642190Y-137230428D01*
X127594571Y-137420904D01*
X127546952Y-137516142D01*
X127499333Y-137563761D01*
X127404095Y-137611380D01*
X127308857Y-137611380D01*
X127213619Y-137563761D01*
X127166000Y-137516142D01*
X127118380Y-137420904D01*
X127070761Y-137230428D01*
X127070761Y-136992333D01*
X127118380Y-136801857D01*
X127166000Y-136706619D01*
X127213619Y-136659000D01*
X127308857Y-136611380D01*
X128023142Y-136706619D02*
X128070761Y-136659000D01*
X128166000Y-136611380D01*
X128404095Y-136611380D01*
X128499333Y-136659000D01*
X128546952Y-136706619D01*
X128594571Y-136801857D01*
X128594571Y-136897095D01*
X128546952Y-137039952D01*
X127975523Y-137611380D01*
X128594571Y-137611380D01*
X128975523Y-136706619D02*
X129023142Y-136659000D01*
X129118380Y-136611380D01*
X129356476Y-136611380D01*
X129451714Y-136659000D01*
X129499333Y-136706619D01*
X129546952Y-136801857D01*
X129546952Y-136897095D01*
X129499333Y-137039952D01*
X128927904Y-137611380D01*
X129546952Y-137611380D01*
D11*
X187660000Y-124695000D02*
X187960000Y-124095000D01*
X188260000Y-124695000D02*
X187660000Y-124695000D01*
X187960000Y-124095000D02*
X188260000Y-124695000D01*
X184150000Y-108675000D02*
X184150000Y-123895000D01*
X192870000Y-108675000D02*
X184150000Y-108675000D01*
X192870000Y-123895000D02*
X192870000Y-108675000D01*
X184150000Y-123895000D02*
X192870000Y-123895000D01*
X187660000Y-103740000D02*
X187960000Y-103140000D01*
X188260000Y-103740000D02*
X187660000Y-103740000D01*
X187960000Y-103140000D02*
X188260000Y-103740000D01*
X184150000Y-87720000D02*
X184150000Y-102940000D01*
X192870000Y-87720000D02*
X184150000Y-87720000D01*
X192870000Y-102940000D02*
X192870000Y-87720000D01*
X184150000Y-102940000D02*
X192870000Y-102940000D01*
X105410000Y-98365000D02*
X106740000Y-98365000D01*
X106740000Y-98365000D02*
X106740000Y-99695000D01*
X106740000Y-100965000D02*
X106740000Y-113725000D01*
X104080000Y-113725000D02*
X106740000Y-113725000D01*
X104080000Y-100965000D02*
X104080000Y-113725000D01*
X104080000Y-100965000D02*
X106740000Y-100965000D01*
X125160000Y-81450000D02*
X125160000Y-70950000D01*
X109050000Y-81450000D02*
X109050000Y-70950000D01*
X109050000Y-81450000D02*
X125160000Y-81450000D01*
X109050000Y-70950000D02*
X125160000Y-70950000D01*
X125160000Y-78740000D02*
X127120000Y-78740000D01*
X125160000Y-76200000D02*
X127120000Y-76200000D01*
X125160000Y-73660000D02*
X127120000Y-73660000D01*
X125160000Y-70020000D02*
X125160000Y-59520000D01*
X109050000Y-70020000D02*
X109050000Y-59520000D01*
X109050000Y-70020000D02*
X125160000Y-70020000D01*
X109050000Y-59520000D02*
X125160000Y-59520000D01*
X125160000Y-67310000D02*
X127120000Y-67310000D01*
X125160000Y-64770000D02*
X127120000Y-64770000D01*
X125160000Y-62230000D02*
X127120000Y-62230000D01*
X138490000Y-105045000D02*
X138490000Y-103395000D01*
X138490000Y-103395000D02*
X128210000Y-103395000D01*
X128210000Y-103395000D02*
X128210000Y-108695000D01*
X128210000Y-108695000D02*
X138490000Y-108695000D01*
X138490000Y-108695000D02*
X138490000Y-107045000D01*
X138490000Y-107045000D02*
G75*
G02*
X138490000Y-105045000I0J1000000D01*
G01*
X144938000Y-112380000D02*
X143098000Y-112380000D01*
X143098000Y-112380000D02*
X143098000Y-116220000D01*
X143098000Y-116220000D02*
X144938000Y-116220000D01*
X144938000Y-116220000D02*
X144938000Y-112380000D01*
X144018000Y-111430000D02*
X144018000Y-112380000D01*
X144018000Y-117170000D02*
X144018000Y-116220000D01*
X143860000Y-130190000D02*
X145700000Y-130190000D01*
X145700000Y-130190000D02*
X145700000Y-126350000D01*
X145700000Y-126350000D02*
X143860000Y-126350000D01*
X143860000Y-126350000D02*
X143860000Y-130190000D01*
X144780000Y-131140000D02*
X144780000Y-130190000D01*
X144780000Y-125400000D02*
X144780000Y-126350000D01*
X143098000Y-99710000D02*
X144938000Y-99710000D01*
X144938000Y-99710000D02*
X144938000Y-95870000D01*
X144938000Y-95870000D02*
X143098000Y-95870000D01*
X143098000Y-95870000D02*
X143098000Y-99710000D01*
X144018000Y-100660000D02*
X144018000Y-99710000D01*
X144018000Y-94920000D02*
X144018000Y-95870000D01*
X145700000Y-81900000D02*
X143860000Y-81900000D01*
X143860000Y-81900000D02*
X143860000Y-85740000D01*
X143860000Y-85740000D02*
X145700000Y-85740000D01*
X145700000Y-85740000D02*
X145700000Y-81900000D01*
X144780000Y-80950000D02*
X144780000Y-81900000D01*
X144780000Y-86690000D02*
X144780000Y-85740000D01*
X131430000Y-98140000D02*
X131430000Y-99980000D01*
X131430000Y-99980000D02*
X135270000Y-99980000D01*
X135270000Y-99980000D02*
X135270000Y-98140000D01*
X135270000Y-98140000D02*
X131430000Y-98140000D01*
X130480000Y-99060000D02*
X131430000Y-99060000D01*
X136220000Y-99060000D02*
X135270000Y-99060000D01*
X131430000Y-112110000D02*
X131430000Y-113950000D01*
X131430000Y-113950000D02*
X135270000Y-113950000D01*
X135270000Y-113950000D02*
X135270000Y-112110000D01*
X135270000Y-112110000D02*
X131430000Y-112110000D01*
X130480000Y-113030000D02*
X131430000Y-113030000D01*
X136220000Y-113030000D02*
X135270000Y-113030000D01*
X131430000Y-95600000D02*
X131430000Y-97440000D01*
X131430000Y-97440000D02*
X135270000Y-97440000D01*
X135270000Y-97440000D02*
X135270000Y-95600000D01*
X135270000Y-95600000D02*
X131430000Y-95600000D01*
X130480000Y-96520000D02*
X131430000Y-96520000D01*
X136220000Y-96520000D02*
X135270000Y-96520000D01*
X131430000Y-114650000D02*
X131430000Y-116490000D01*
X131430000Y-116490000D02*
X135270000Y-116490000D01*
X135270000Y-116490000D02*
X135270000Y-114650000D01*
X135270000Y-114650000D02*
X131430000Y-114650000D01*
X130480000Y-115570000D02*
X131430000Y-115570000D01*
X136220000Y-115570000D02*
X135270000Y-115570000D01*
X130460000Y-88250000D02*
X128620000Y-88250000D01*
X128620000Y-88250000D02*
X128620000Y-92090000D01*
X128620000Y-92090000D02*
X130460000Y-92090000D01*
X130460000Y-92090000D02*
X130460000Y-88250000D01*
X129540000Y-87300000D02*
X129540000Y-88250000D01*
X129540000Y-93040000D02*
X129540000Y-92090000D01*
X128620000Y-123840000D02*
X130460000Y-123840000D01*
X130460000Y-123840000D02*
X130460000Y-120000000D01*
X130460000Y-120000000D02*
X128620000Y-120000000D01*
X128620000Y-120000000D02*
X128620000Y-123840000D01*
X129540000Y-124790000D02*
X129540000Y-123840000D01*
X129540000Y-119050000D02*
X129540000Y-120000000D01*
X125110000Y-101250000D02*
X125110000Y-99410000D01*
X125110000Y-99410000D02*
X121270000Y-99410000D01*
X121270000Y-99410000D02*
X121270000Y-101250000D01*
X121270000Y-101250000D02*
X125110000Y-101250000D01*
X126060000Y-100330000D02*
X125110000Y-100330000D01*
X120320000Y-100330000D02*
X121270000Y-100330000D01*
X125110000Y-112680000D02*
X125110000Y-110840000D01*
X125110000Y-110840000D02*
X121270000Y-110840000D01*
X121270000Y-110840000D02*
X121270000Y-112680000D01*
X121270000Y-112680000D02*
X125110000Y-112680000D01*
X126060000Y-111760000D02*
X125110000Y-111760000D01*
X120320000Y-111760000D02*
X121270000Y-111760000D01*
X109220000Y-93040000D02*
X109220000Y-92090000D01*
X109220000Y-87300000D02*
X109220000Y-88250000D01*
X110140000Y-92090000D02*
X110140000Y-88250000D01*
X108300000Y-92090000D02*
X110140000Y-92090000D01*
X108300000Y-88250000D02*
X108300000Y-92090000D01*
X110140000Y-88250000D02*
X108300000Y-88250000D01*
X108300000Y-123840000D02*
X110140000Y-123840000D01*
X110140000Y-123840000D02*
X110140000Y-120000000D01*
X110140000Y-120000000D02*
X108300000Y-120000000D01*
X108300000Y-120000000D02*
X108300000Y-123840000D01*
X109220000Y-124790000D02*
X109220000Y-123840000D01*
X109220000Y-119050000D02*
X109220000Y-120000000D01*
X110140000Y-98410000D02*
X108300000Y-98410000D01*
X108300000Y-98410000D02*
X108300000Y-102250000D01*
X108300000Y-102250000D02*
X110140000Y-102250000D01*
X110140000Y-102250000D02*
X110140000Y-98410000D01*
X109220000Y-97460000D02*
X109220000Y-98410000D01*
X109220000Y-103200000D02*
X109220000Y-102250000D01*
X108300000Y-113680000D02*
X110140000Y-113680000D01*
X110140000Y-113680000D02*
X110140000Y-109840000D01*
X110140000Y-109840000D02*
X108300000Y-109840000D01*
X108300000Y-109840000D02*
X108300000Y-113680000D01*
X109220000Y-114630000D02*
X109220000Y-113680000D01*
X109220000Y-108890000D02*
X109220000Y-109840000D01*
X152740000Y-122025000D02*
X152260000Y-122025000D01*
X152740000Y-116575000D02*
X152260000Y-116575000D01*
X152740000Y-111125000D02*
X152260000Y-111125000D01*
X172980000Y-124445000D02*
X152740000Y-124445000D01*
X172980000Y-108705000D02*
X152740000Y-108705000D01*
X172980000Y-108705000D02*
X172980000Y-124445000D01*
X152740000Y-108705000D02*
X152740000Y-124445000D01*
X152740000Y-148695000D02*
X152260000Y-148695000D01*
X152740000Y-143245000D02*
X152260000Y-143245000D01*
X152740000Y-137795000D02*
X152260000Y-137795000D01*
X172980000Y-151115000D02*
X152740000Y-151115000D01*
X172980000Y-135375000D02*
X152740000Y-135375000D01*
X172980000Y-135375000D02*
X172980000Y-151115000D01*
X152740000Y-135375000D02*
X152740000Y-151115000D01*
X152740000Y-87750000D02*
X152740000Y-103490000D01*
X172980000Y-87750000D02*
X172980000Y-103490000D01*
X172980000Y-87750000D02*
X152740000Y-87750000D01*
X172980000Y-103490000D02*
X152740000Y-103490000D01*
X152740000Y-90170000D02*
X152260000Y-90170000D01*
X152740000Y-95620000D02*
X152260000Y-95620000D01*
X152740000Y-101070000D02*
X152260000Y-101070000D01*
X152740000Y-61050000D02*
X152740000Y-76790000D01*
X172980000Y-61050000D02*
X172980000Y-76790000D01*
X172980000Y-61050000D02*
X152740000Y-61050000D01*
X172980000Y-76790000D02*
X152740000Y-76790000D01*
X152740000Y-63470000D02*
X152260000Y-63470000D01*
X152740000Y-68920000D02*
X152260000Y-68920000D01*
X152740000Y-74370000D02*
X152260000Y-74370000D01*
X106680000Y-67875000D02*
X97960000Y-67875000D01*
X97960000Y-67875000D02*
X97960000Y-83095000D01*
X97960000Y-83095000D02*
X106680000Y-83095000D01*
X106680000Y-83095000D02*
X106680000Y-67875000D01*
X102870000Y-67675000D02*
X102570000Y-67075000D01*
X102570000Y-67075000D02*
X103170000Y-67075000D01*
X103170000Y-67075000D02*
X102870000Y-67675000D01*
X100270000Y-111185000D02*
X102930000Y-111185000D01*
X100270000Y-103505000D02*
X100270000Y-111185000D01*
X102930000Y-103505000D02*
X102930000Y-111185000D01*
X100270000Y-103505000D02*
X102930000Y-103505000D01*
X100270000Y-102235000D02*
X100270000Y-100905000D01*
X100270000Y-100905000D02*
X101600000Y-100905000D01*
X142210000Y-111310000D02*
X142390000Y-111310000D01*
X142390000Y-111310000D02*
X142390000Y-114750000D01*
X142390000Y-114750000D02*
X142210000Y-114750000D01*
X139730000Y-111310000D02*
X139550000Y-111310000D01*
X139550000Y-111310000D02*
X139550000Y-114750000D01*
X139550000Y-114750000D02*
X139730000Y-114750000D01*
X142390000Y-111910000D02*
X139550000Y-111910000D01*
X142390000Y-112030000D02*
X139550000Y-112030000D01*
X142390000Y-111790000D02*
X139550000Y-111790000D01*
X142210000Y-120200000D02*
X142390000Y-120200000D01*
X142390000Y-120200000D02*
X142390000Y-123640000D01*
X142390000Y-123640000D02*
X142210000Y-123640000D01*
X139730000Y-120200000D02*
X139550000Y-120200000D01*
X139550000Y-120200000D02*
X139550000Y-123640000D01*
X139550000Y-123640000D02*
X139730000Y-123640000D01*
X142390000Y-120800000D02*
X139550000Y-120800000D01*
X142390000Y-120920000D02*
X139550000Y-120920000D01*
X142390000Y-120680000D02*
X139550000Y-120680000D01*
X139730000Y-100780000D02*
X139550000Y-100780000D01*
X139550000Y-100780000D02*
X139550000Y-97340000D01*
X139550000Y-97340000D02*
X139730000Y-97340000D01*
X142210000Y-100780000D02*
X142390000Y-100780000D01*
X142390000Y-100780000D02*
X142390000Y-97340000D01*
X142390000Y-97340000D02*
X142210000Y-97340000D01*
X139550000Y-100180000D02*
X142390000Y-100180000D01*
X139550000Y-100060000D02*
X142390000Y-100060000D01*
X139550000Y-100300000D02*
X142390000Y-100300000D01*
X139730000Y-91890000D02*
X139550000Y-91890000D01*
X139550000Y-91890000D02*
X139550000Y-88450000D01*
X139550000Y-88450000D02*
X139730000Y-88450000D01*
X142210000Y-91890000D02*
X142390000Y-91890000D01*
X142390000Y-91890000D02*
X142390000Y-88450000D01*
X142390000Y-88450000D02*
X142210000Y-88450000D01*
X139550000Y-91290000D02*
X142390000Y-91290000D01*
X139550000Y-91170000D02*
X142390000Y-91170000D01*
X139550000Y-91410000D02*
X142390000Y-91410000D01*
X111155000Y-94430000D02*
X110975000Y-94430000D01*
X110975000Y-94430000D02*
X110975000Y-90990000D01*
X110975000Y-90990000D02*
X111155000Y-90990000D01*
X113635000Y-94430000D02*
X113815000Y-94430000D01*
X113815000Y-94430000D02*
X113815000Y-90990000D01*
X113815000Y-90990000D02*
X113635000Y-90990000D01*
X110975000Y-93830000D02*
X113815000Y-93830000D01*
X110975000Y-93710000D02*
X113815000Y-93710000D01*
X110975000Y-93950000D02*
X113815000Y-93950000D01*
X117445000Y-90990000D02*
X117625000Y-90990000D01*
X117625000Y-90990000D02*
X117625000Y-94430000D01*
X117625000Y-94430000D02*
X117445000Y-94430000D01*
X114965000Y-90990000D02*
X114785000Y-90990000D01*
X114785000Y-90990000D02*
X114785000Y-94430000D01*
X114785000Y-94430000D02*
X114965000Y-94430000D01*
X117625000Y-91590000D02*
X114785000Y-91590000D01*
X117625000Y-91710000D02*
X114785000Y-91710000D01*
X117625000Y-91470000D02*
X114785000Y-91470000D01*
X113635000Y-117025000D02*
X113815000Y-117025000D01*
X113815000Y-117025000D02*
X113815000Y-120465000D01*
X113815000Y-120465000D02*
X113635000Y-120465000D01*
X111155000Y-117025000D02*
X110975000Y-117025000D01*
X110975000Y-117025000D02*
X110975000Y-120465000D01*
X110975000Y-120465000D02*
X111155000Y-120465000D01*
X113815000Y-117625000D02*
X110975000Y-117625000D01*
X113815000Y-117745000D02*
X110975000Y-117745000D01*
X113815000Y-117505000D02*
X110975000Y-117505000D01*
X114965000Y-120465000D02*
X114785000Y-120465000D01*
X114785000Y-120465000D02*
X114785000Y-117025000D01*
X114785000Y-117025000D02*
X114965000Y-117025000D01*
X117445000Y-120465000D02*
X117625000Y-120465000D01*
X117625000Y-120465000D02*
X117625000Y-117025000D01*
X117625000Y-117025000D02*
X117445000Y-117025000D01*
X114785000Y-119865000D02*
X117625000Y-119865000D01*
X114785000Y-119745000D02*
X117625000Y-119745000D01*
X114785000Y-119985000D02*
X117625000Y-119985000D01*
X143510000Y-76200000D02*
G75*
G03*
X143510000Y-76200000I-5120000J0D01*
G01*
X138390000Y-71120000D02*
X138390000Y-81280000D01*
X138430000Y-71120000D02*
X138430000Y-81280000D01*
X138470000Y-71120000D02*
X138470000Y-81280000D01*
X138510000Y-71121000D02*
X138510000Y-81279000D01*
X138550000Y-71122000D02*
X138550000Y-81278000D01*
X138590000Y-71123000D02*
X138590000Y-81277000D01*
X138630000Y-71125000D02*
X138630000Y-81275000D01*
X138670000Y-71127000D02*
X138670000Y-81273000D01*
X138710000Y-71130000D02*
X138710000Y-81270000D01*
X138750000Y-71132000D02*
X138750000Y-81268000D01*
X138790000Y-71135000D02*
X138790000Y-81265000D01*
X138830000Y-71138000D02*
X138830000Y-81262000D01*
X138870000Y-71142000D02*
X138870000Y-81258000D01*
X138910000Y-71146000D02*
X138910000Y-81254000D01*
X138950000Y-71150000D02*
X138950000Y-81250000D01*
X138990000Y-71155000D02*
X138990000Y-81245000D01*
X139030000Y-71160000D02*
X139030000Y-81240000D01*
X139070000Y-71165000D02*
X139070000Y-81235000D01*
X139111000Y-71170000D02*
X139111000Y-81230000D01*
X139151000Y-71176000D02*
X139151000Y-81224000D01*
X139191000Y-71182000D02*
X139191000Y-81218000D01*
X139231000Y-71189000D02*
X139231000Y-81211000D01*
X139271000Y-71196000D02*
X139271000Y-81204000D01*
X139311000Y-71203000D02*
X139311000Y-81197000D01*
X139351000Y-71210000D02*
X139351000Y-81190000D01*
X139391000Y-71218000D02*
X139391000Y-81182000D01*
X139431000Y-71226000D02*
X139431000Y-81174000D01*
X139471000Y-71235000D02*
X139471000Y-81165000D01*
X139511000Y-71244000D02*
X139511000Y-81156000D01*
X139551000Y-71253000D02*
X139551000Y-81147000D01*
X139591000Y-71262000D02*
X139591000Y-81138000D01*
X139631000Y-71272000D02*
X139631000Y-81128000D01*
X139671000Y-71282000D02*
X139671000Y-74959000D01*
X139671000Y-77441000D02*
X139671000Y-81118000D01*
X139711000Y-71293000D02*
X139711000Y-74959000D01*
X139711000Y-77441000D02*
X139711000Y-81107000D01*
X139751000Y-71303000D02*
X139751000Y-74959000D01*
X139751000Y-77441000D02*
X139751000Y-81097000D01*
X139791000Y-71315000D02*
X139791000Y-74959000D01*
X139791000Y-77441000D02*
X139791000Y-81085000D01*
X139831000Y-71326000D02*
X139831000Y-74959000D01*
X139831000Y-77441000D02*
X139831000Y-81074000D01*
X139871000Y-71338000D02*
X139871000Y-74959000D01*
X139871000Y-77441000D02*
X139871000Y-81062000D01*
X139911000Y-71350000D02*
X139911000Y-74959000D01*
X139911000Y-77441000D02*
X139911000Y-81050000D01*
X139951000Y-71363000D02*
X139951000Y-74959000D01*
X139951000Y-77441000D02*
X139951000Y-81037000D01*
X139991000Y-71376000D02*
X139991000Y-74959000D01*
X139991000Y-77441000D02*
X139991000Y-81024000D01*
X140031000Y-71389000D02*
X140031000Y-74959000D01*
X140031000Y-77441000D02*
X140031000Y-81011000D01*
X140071000Y-71403000D02*
X140071000Y-74959000D01*
X140071000Y-77441000D02*
X140071000Y-80997000D01*
X140111000Y-71417000D02*
X140111000Y-74959000D01*
X140111000Y-77441000D02*
X140111000Y-80983000D01*
X140151000Y-71432000D02*
X140151000Y-74959000D01*
X140151000Y-77441000D02*
X140151000Y-80968000D01*
X140191000Y-71446000D02*
X140191000Y-74959000D01*
X140191000Y-77441000D02*
X140191000Y-80954000D01*
X140231000Y-71462000D02*
X140231000Y-74959000D01*
X140231000Y-77441000D02*
X140231000Y-80938000D01*
X140271000Y-71477000D02*
X140271000Y-74959000D01*
X140271000Y-77441000D02*
X140271000Y-80923000D01*
X140311000Y-71493000D02*
X140311000Y-74959000D01*
X140311000Y-77441000D02*
X140311000Y-80907000D01*
X140351000Y-71510000D02*
X140351000Y-74959000D01*
X140351000Y-77441000D02*
X140351000Y-80890000D01*
X140391000Y-71526000D02*
X140391000Y-74959000D01*
X140391000Y-77441000D02*
X140391000Y-80874000D01*
X140431000Y-71543000D02*
X140431000Y-74959000D01*
X140431000Y-77441000D02*
X140431000Y-80857000D01*
X140471000Y-71561000D02*
X140471000Y-74959000D01*
X140471000Y-77441000D02*
X140471000Y-80839000D01*
X140511000Y-71579000D02*
X140511000Y-74959000D01*
X140511000Y-77441000D02*
X140511000Y-80821000D01*
X140551000Y-71597000D02*
X140551000Y-74959000D01*
X140551000Y-77441000D02*
X140551000Y-80803000D01*
X140591000Y-71616000D02*
X140591000Y-74959000D01*
X140591000Y-77441000D02*
X140591000Y-80784000D01*
X140631000Y-71636000D02*
X140631000Y-74959000D01*
X140631000Y-77441000D02*
X140631000Y-80764000D01*
X140671000Y-71655000D02*
X140671000Y-74959000D01*
X140671000Y-77441000D02*
X140671000Y-80745000D01*
X140711000Y-71675000D02*
X140711000Y-74959000D01*
X140711000Y-77441000D02*
X140711000Y-80725000D01*
X140751000Y-71696000D02*
X140751000Y-74959000D01*
X140751000Y-77441000D02*
X140751000Y-80704000D01*
X140791000Y-71717000D02*
X140791000Y-74959000D01*
X140791000Y-77441000D02*
X140791000Y-80683000D01*
X140831000Y-71738000D02*
X140831000Y-74959000D01*
X140831000Y-77441000D02*
X140831000Y-80662000D01*
X140871000Y-71760000D02*
X140871000Y-74959000D01*
X140871000Y-77441000D02*
X140871000Y-80640000D01*
X140911000Y-71783000D02*
X140911000Y-74959000D01*
X140911000Y-77441000D02*
X140911000Y-80617000D01*
X140951000Y-71805000D02*
X140951000Y-74959000D01*
X140951000Y-77441000D02*
X140951000Y-80595000D01*
X140991000Y-71829000D02*
X140991000Y-74959000D01*
X140991000Y-77441000D02*
X140991000Y-80571000D01*
X141031000Y-71853000D02*
X141031000Y-74959000D01*
X141031000Y-77441000D02*
X141031000Y-80547000D01*
X141071000Y-71877000D02*
X141071000Y-74959000D01*
X141071000Y-77441000D02*
X141071000Y-80523000D01*
X141111000Y-71902000D02*
X141111000Y-74959000D01*
X141111000Y-77441000D02*
X141111000Y-80498000D01*
X141151000Y-71927000D02*
X141151000Y-74959000D01*
X141151000Y-77441000D02*
X141151000Y-80473000D01*
X141191000Y-71953000D02*
X141191000Y-74959000D01*
X141191000Y-77441000D02*
X141191000Y-80447000D01*
X141231000Y-71979000D02*
X141231000Y-74959000D01*
X141231000Y-77441000D02*
X141231000Y-80421000D01*
X141271000Y-72006000D02*
X141271000Y-74959000D01*
X141271000Y-77441000D02*
X141271000Y-80394000D01*
X141311000Y-72034000D02*
X141311000Y-74959000D01*
X141311000Y-77441000D02*
X141311000Y-80366000D01*
X141351000Y-72062000D02*
X141351000Y-74959000D01*
X141351000Y-77441000D02*
X141351000Y-80338000D01*
X141391000Y-72090000D02*
X141391000Y-74959000D01*
X141391000Y-77441000D02*
X141391000Y-80310000D01*
X141431000Y-72120000D02*
X141431000Y-74959000D01*
X141431000Y-77441000D02*
X141431000Y-80280000D01*
X141471000Y-72150000D02*
X141471000Y-74959000D01*
X141471000Y-77441000D02*
X141471000Y-80250000D01*
X141511000Y-72180000D02*
X141511000Y-74959000D01*
X141511000Y-77441000D02*
X141511000Y-80220000D01*
X141551000Y-72211000D02*
X141551000Y-74959000D01*
X141551000Y-77441000D02*
X141551000Y-80189000D01*
X141591000Y-72243000D02*
X141591000Y-74959000D01*
X141591000Y-77441000D02*
X141591000Y-80157000D01*
X141631000Y-72275000D02*
X141631000Y-74959000D01*
X141631000Y-77441000D02*
X141631000Y-80125000D01*
X141671000Y-72308000D02*
X141671000Y-74959000D01*
X141671000Y-77441000D02*
X141671000Y-80092000D01*
X141711000Y-72342000D02*
X141711000Y-74959000D01*
X141711000Y-77441000D02*
X141711000Y-80058000D01*
X141751000Y-72376000D02*
X141751000Y-74959000D01*
X141751000Y-77441000D02*
X141751000Y-80024000D01*
X141791000Y-72411000D02*
X141791000Y-74959000D01*
X141791000Y-77441000D02*
X141791000Y-79989000D01*
X141831000Y-72447000D02*
X141831000Y-74959000D01*
X141831000Y-77441000D02*
X141831000Y-79953000D01*
X141871000Y-72484000D02*
X141871000Y-74959000D01*
X141871000Y-77441000D02*
X141871000Y-79916000D01*
X141911000Y-72521000D02*
X141911000Y-74959000D01*
X141911000Y-77441000D02*
X141911000Y-79879000D01*
X141951000Y-72560000D02*
X141951000Y-74959000D01*
X141951000Y-77441000D02*
X141951000Y-79840000D01*
X141991000Y-72599000D02*
X141991000Y-74959000D01*
X141991000Y-77441000D02*
X141991000Y-79801000D01*
X142031000Y-72639000D02*
X142031000Y-74959000D01*
X142031000Y-77441000D02*
X142031000Y-79761000D01*
X142071000Y-72680000D02*
X142071000Y-74959000D01*
X142071000Y-77441000D02*
X142071000Y-79720000D01*
X142111000Y-72722000D02*
X142111000Y-74959000D01*
X142111000Y-77441000D02*
X142111000Y-79678000D01*
X142151000Y-72764000D02*
X142151000Y-79636000D01*
X142191000Y-72808000D02*
X142191000Y-79592000D01*
X142231000Y-72853000D02*
X142231000Y-79547000D01*
X142271000Y-72899000D02*
X142271000Y-79501000D01*
X142311000Y-72946000D02*
X142311000Y-79454000D01*
X142351000Y-72994000D02*
X142351000Y-79406000D01*
X142391000Y-73044000D02*
X142391000Y-79356000D01*
X142431000Y-73094000D02*
X142431000Y-79306000D01*
X142471000Y-73146000D02*
X142471000Y-79254000D01*
X142511000Y-73200000D02*
X142511000Y-79200000D01*
X142551000Y-73255000D02*
X142551000Y-79145000D01*
X142591000Y-73311000D02*
X142591000Y-79089000D01*
X142631000Y-73370000D02*
X142631000Y-79030000D01*
X142671000Y-73430000D02*
X142671000Y-78970000D01*
X142711000Y-73491000D02*
X142711000Y-78909000D01*
X142751000Y-73555000D02*
X142751000Y-78845000D01*
X142791000Y-73621000D02*
X142791000Y-78779000D01*
X142831000Y-73690000D02*
X142831000Y-78710000D01*
X142871000Y-73761000D02*
X142871000Y-78639000D01*
X142911000Y-73835000D02*
X142911000Y-78565000D01*
X142951000Y-73911000D02*
X142951000Y-78489000D01*
X142991000Y-73991000D02*
X142991000Y-78409000D01*
X143031000Y-74075000D02*
X143031000Y-78325000D01*
X143071000Y-74163000D02*
X143071000Y-78237000D01*
X143111000Y-74256000D02*
X143111000Y-78144000D01*
X143151000Y-74354000D02*
X143151000Y-78046000D01*
X143191000Y-74458000D02*
X143191000Y-77942000D01*
X143231000Y-74570000D02*
X143231000Y-77830000D01*
X143271000Y-74690000D02*
X143271000Y-77710000D01*
X143311000Y-74822000D02*
X143311000Y-77578000D01*
X143351000Y-74970000D02*
X143351000Y-77430000D01*
X143391000Y-75138000D02*
X143391000Y-77262000D01*
X143431000Y-75338000D02*
X143431000Y-77062000D01*
X143471000Y-75601000D02*
X143471000Y-76799000D01*
X132910354Y-73325000D02*
X133910354Y-73325000D01*
X133410354Y-72825000D02*
X133410354Y-73825000D01*
X143510000Y-64770000D02*
G75*
G03*
X143510000Y-64770000I-5120000J0D01*
G01*
X138390000Y-59690000D02*
X138390000Y-69850000D01*
X138430000Y-59690000D02*
X138430000Y-69850000D01*
X138470000Y-59690000D02*
X138470000Y-69850000D01*
X138510000Y-59691000D02*
X138510000Y-69849000D01*
X138550000Y-59692000D02*
X138550000Y-69848000D01*
X138590000Y-59693000D02*
X138590000Y-69847000D01*
X138630000Y-59695000D02*
X138630000Y-69845000D01*
X138670000Y-59697000D02*
X138670000Y-69843000D01*
X138710000Y-59700000D02*
X138710000Y-69840000D01*
X138750000Y-59702000D02*
X138750000Y-69838000D01*
X138790000Y-59705000D02*
X138790000Y-69835000D01*
X138830000Y-59708000D02*
X138830000Y-69832000D01*
X138870000Y-59712000D02*
X138870000Y-69828000D01*
X138910000Y-59716000D02*
X138910000Y-69824000D01*
X138950000Y-59720000D02*
X138950000Y-69820000D01*
X138990000Y-59725000D02*
X138990000Y-69815000D01*
X139030000Y-59730000D02*
X139030000Y-69810000D01*
X139070000Y-59735000D02*
X139070000Y-69805000D01*
X139111000Y-59740000D02*
X139111000Y-69800000D01*
X139151000Y-59746000D02*
X139151000Y-69794000D01*
X139191000Y-59752000D02*
X139191000Y-69788000D01*
X139231000Y-59759000D02*
X139231000Y-69781000D01*
X139271000Y-59766000D02*
X139271000Y-69774000D01*
X139311000Y-59773000D02*
X139311000Y-69767000D01*
X139351000Y-59780000D02*
X139351000Y-69760000D01*
X139391000Y-59788000D02*
X139391000Y-69752000D01*
X139431000Y-59796000D02*
X139431000Y-69744000D01*
X139471000Y-59805000D02*
X139471000Y-69735000D01*
X139511000Y-59814000D02*
X139511000Y-69726000D01*
X139551000Y-59823000D02*
X139551000Y-69717000D01*
X139591000Y-59832000D02*
X139591000Y-69708000D01*
X139631000Y-59842000D02*
X139631000Y-69698000D01*
X139671000Y-59852000D02*
X139671000Y-63529000D01*
X139671000Y-66011000D02*
X139671000Y-69688000D01*
X139711000Y-59863000D02*
X139711000Y-63529000D01*
X139711000Y-66011000D02*
X139711000Y-69677000D01*
X139751000Y-59873000D02*
X139751000Y-63529000D01*
X139751000Y-66011000D02*
X139751000Y-69667000D01*
X139791000Y-59885000D02*
X139791000Y-63529000D01*
X139791000Y-66011000D02*
X139791000Y-69655000D01*
X139831000Y-59896000D02*
X139831000Y-63529000D01*
X139831000Y-66011000D02*
X139831000Y-69644000D01*
X139871000Y-59908000D02*
X139871000Y-63529000D01*
X139871000Y-66011000D02*
X139871000Y-69632000D01*
X139911000Y-59920000D02*
X139911000Y-63529000D01*
X139911000Y-66011000D02*
X139911000Y-69620000D01*
X139951000Y-59933000D02*
X139951000Y-63529000D01*
X139951000Y-66011000D02*
X139951000Y-69607000D01*
X139991000Y-59946000D02*
X139991000Y-63529000D01*
X139991000Y-66011000D02*
X139991000Y-69594000D01*
X140031000Y-59959000D02*
X140031000Y-63529000D01*
X140031000Y-66011000D02*
X140031000Y-69581000D01*
X140071000Y-59973000D02*
X140071000Y-63529000D01*
X140071000Y-66011000D02*
X140071000Y-69567000D01*
X140111000Y-59987000D02*
X140111000Y-63529000D01*
X140111000Y-66011000D02*
X140111000Y-69553000D01*
X140151000Y-60002000D02*
X140151000Y-63529000D01*
X140151000Y-66011000D02*
X140151000Y-69538000D01*
X140191000Y-60016000D02*
X140191000Y-63529000D01*
X140191000Y-66011000D02*
X140191000Y-69524000D01*
X140231000Y-60032000D02*
X140231000Y-63529000D01*
X140231000Y-66011000D02*
X140231000Y-69508000D01*
X140271000Y-60047000D02*
X140271000Y-63529000D01*
X140271000Y-66011000D02*
X140271000Y-69493000D01*
X140311000Y-60063000D02*
X140311000Y-63529000D01*
X140311000Y-66011000D02*
X140311000Y-69477000D01*
X140351000Y-60080000D02*
X140351000Y-63529000D01*
X140351000Y-66011000D02*
X140351000Y-69460000D01*
X140391000Y-60096000D02*
X140391000Y-63529000D01*
X140391000Y-66011000D02*
X140391000Y-69444000D01*
X140431000Y-60113000D02*
X140431000Y-63529000D01*
X140431000Y-66011000D02*
X140431000Y-69427000D01*
X140471000Y-60131000D02*
X140471000Y-63529000D01*
X140471000Y-66011000D02*
X140471000Y-69409000D01*
X140511000Y-60149000D02*
X140511000Y-63529000D01*
X140511000Y-66011000D02*
X140511000Y-69391000D01*
X140551000Y-60167000D02*
X140551000Y-63529000D01*
X140551000Y-66011000D02*
X140551000Y-69373000D01*
X140591000Y-60186000D02*
X140591000Y-63529000D01*
X140591000Y-66011000D02*
X140591000Y-69354000D01*
X140631000Y-60206000D02*
X140631000Y-63529000D01*
X140631000Y-66011000D02*
X140631000Y-69334000D01*
X140671000Y-60225000D02*
X140671000Y-63529000D01*
X140671000Y-66011000D02*
X140671000Y-69315000D01*
X140711000Y-60245000D02*
X140711000Y-63529000D01*
X140711000Y-66011000D02*
X140711000Y-69295000D01*
X140751000Y-60266000D02*
X140751000Y-63529000D01*
X140751000Y-66011000D02*
X140751000Y-69274000D01*
X140791000Y-60287000D02*
X140791000Y-63529000D01*
X140791000Y-66011000D02*
X140791000Y-69253000D01*
X140831000Y-60308000D02*
X140831000Y-63529000D01*
X140831000Y-66011000D02*
X140831000Y-69232000D01*
X140871000Y-60330000D02*
X140871000Y-63529000D01*
X140871000Y-66011000D02*
X140871000Y-69210000D01*
X140911000Y-60353000D02*
X140911000Y-63529000D01*
X140911000Y-66011000D02*
X140911000Y-69187000D01*
X140951000Y-60375000D02*
X140951000Y-63529000D01*
X140951000Y-66011000D02*
X140951000Y-69165000D01*
X140991000Y-60399000D02*
X140991000Y-63529000D01*
X140991000Y-66011000D02*
X140991000Y-69141000D01*
X141031000Y-60423000D02*
X141031000Y-63529000D01*
X141031000Y-66011000D02*
X141031000Y-69117000D01*
X141071000Y-60447000D02*
X141071000Y-63529000D01*
X141071000Y-66011000D02*
X141071000Y-69093000D01*
X141111000Y-60472000D02*
X141111000Y-63529000D01*
X141111000Y-66011000D02*
X141111000Y-69068000D01*
X141151000Y-60497000D02*
X141151000Y-63529000D01*
X141151000Y-66011000D02*
X141151000Y-69043000D01*
X141191000Y-60523000D02*
X141191000Y-63529000D01*
X141191000Y-66011000D02*
X141191000Y-69017000D01*
X141231000Y-60549000D02*
X141231000Y-63529000D01*
X141231000Y-66011000D02*
X141231000Y-68991000D01*
X141271000Y-60576000D02*
X141271000Y-63529000D01*
X141271000Y-66011000D02*
X141271000Y-68964000D01*
X141311000Y-60604000D02*
X141311000Y-63529000D01*
X141311000Y-66011000D02*
X141311000Y-68936000D01*
X141351000Y-60632000D02*
X141351000Y-63529000D01*
X141351000Y-66011000D02*
X141351000Y-68908000D01*
X141391000Y-60660000D02*
X141391000Y-63529000D01*
X141391000Y-66011000D02*
X141391000Y-68880000D01*
X141431000Y-60690000D02*
X141431000Y-63529000D01*
X141431000Y-66011000D02*
X141431000Y-68850000D01*
X141471000Y-60720000D02*
X141471000Y-63529000D01*
X141471000Y-66011000D02*
X141471000Y-68820000D01*
X141511000Y-60750000D02*
X141511000Y-63529000D01*
X141511000Y-66011000D02*
X141511000Y-68790000D01*
X141551000Y-60781000D02*
X141551000Y-63529000D01*
X141551000Y-66011000D02*
X141551000Y-68759000D01*
X141591000Y-60813000D02*
X141591000Y-63529000D01*
X141591000Y-66011000D02*
X141591000Y-68727000D01*
X141631000Y-60845000D02*
X141631000Y-63529000D01*
X141631000Y-66011000D02*
X141631000Y-68695000D01*
X141671000Y-60878000D02*
X141671000Y-63529000D01*
X141671000Y-66011000D02*
X141671000Y-68662000D01*
X141711000Y-60912000D02*
X141711000Y-63529000D01*
X141711000Y-66011000D02*
X141711000Y-68628000D01*
X141751000Y-60946000D02*
X141751000Y-63529000D01*
X141751000Y-66011000D02*
X141751000Y-68594000D01*
X141791000Y-60981000D02*
X141791000Y-63529000D01*
X141791000Y-66011000D02*
X141791000Y-68559000D01*
X141831000Y-61017000D02*
X141831000Y-63529000D01*
X141831000Y-66011000D02*
X141831000Y-68523000D01*
X141871000Y-61054000D02*
X141871000Y-63529000D01*
X141871000Y-66011000D02*
X141871000Y-68486000D01*
X141911000Y-61091000D02*
X141911000Y-63529000D01*
X141911000Y-66011000D02*
X141911000Y-68449000D01*
X141951000Y-61130000D02*
X141951000Y-63529000D01*
X141951000Y-66011000D02*
X141951000Y-68410000D01*
X141991000Y-61169000D02*
X141991000Y-63529000D01*
X141991000Y-66011000D02*
X141991000Y-68371000D01*
X142031000Y-61209000D02*
X142031000Y-63529000D01*
X142031000Y-66011000D02*
X142031000Y-68331000D01*
X142071000Y-61250000D02*
X142071000Y-63529000D01*
X142071000Y-66011000D02*
X142071000Y-68290000D01*
X142111000Y-61292000D02*
X142111000Y-63529000D01*
X142111000Y-66011000D02*
X142111000Y-68248000D01*
X142151000Y-61334000D02*
X142151000Y-68206000D01*
X142191000Y-61378000D02*
X142191000Y-68162000D01*
X142231000Y-61423000D02*
X142231000Y-68117000D01*
X142271000Y-61469000D02*
X142271000Y-68071000D01*
X142311000Y-61516000D02*
X142311000Y-68024000D01*
X142351000Y-61564000D02*
X142351000Y-67976000D01*
X142391000Y-61614000D02*
X142391000Y-67926000D01*
X142431000Y-61664000D02*
X142431000Y-67876000D01*
X142471000Y-61716000D02*
X142471000Y-67824000D01*
X142511000Y-61770000D02*
X142511000Y-67770000D01*
X142551000Y-61825000D02*
X142551000Y-67715000D01*
X142591000Y-61881000D02*
X142591000Y-67659000D01*
X142631000Y-61940000D02*
X142631000Y-67600000D01*
X142671000Y-62000000D02*
X142671000Y-67540000D01*
X142711000Y-62061000D02*
X142711000Y-67479000D01*
X142751000Y-62125000D02*
X142751000Y-67415000D01*
X142791000Y-62191000D02*
X142791000Y-67349000D01*
X142831000Y-62260000D02*
X142831000Y-67280000D01*
X142871000Y-62331000D02*
X142871000Y-67209000D01*
X142911000Y-62405000D02*
X142911000Y-67135000D01*
X142951000Y-62481000D02*
X142951000Y-67059000D01*
X142991000Y-62561000D02*
X142991000Y-66979000D01*
X143031000Y-62645000D02*
X143031000Y-66895000D01*
X143071000Y-62733000D02*
X143071000Y-66807000D01*
X143111000Y-62826000D02*
X143111000Y-66714000D01*
X143151000Y-62924000D02*
X143151000Y-66616000D01*
X143191000Y-63028000D02*
X143191000Y-66512000D01*
X143231000Y-63140000D02*
X143231000Y-66400000D01*
X143271000Y-63260000D02*
X143271000Y-66280000D01*
X143311000Y-63392000D02*
X143311000Y-66148000D01*
X143351000Y-63540000D02*
X143351000Y-66000000D01*
X143391000Y-63708000D02*
X143391000Y-65832000D01*
X143431000Y-63908000D02*
X143431000Y-65632000D01*
X143471000Y-64171000D02*
X143471000Y-65369000D01*
X132910354Y-61895000D02*
X133910354Y-61895000D01*
X133410354Y-61395000D02*
X133410354Y-62395000D01*
X129890000Y-75579000D02*
X129890000Y-74321000D01*
X131730000Y-75579000D02*
X131730000Y-74321000D01*
X131730000Y-62851000D02*
X131730000Y-64109000D01*
X129890000Y-62851000D02*
X129890000Y-64109000D01*
X137910000Y-121920000D02*
G75*
G03*
X137910000Y-121920000I-3270000J0D01*
G01*
X137910000Y-90170000D02*
G75*
G03*
X137910000Y-90170000I-3270000J0D01*
G01*
X122150000Y-95450000D02*
X126690000Y-95450000D01*
X122150000Y-97590000D02*
X126690000Y-97590000D01*
X122150000Y-95450000D02*
X122150000Y-95465000D01*
X122150000Y-97575000D02*
X122150000Y-97590000D01*
X126690000Y-95450000D02*
X126690000Y-95465000D01*
X126690000Y-97575000D02*
X126690000Y-97590000D01*
X122150000Y-114500000D02*
X126690000Y-114500000D01*
X122150000Y-116640000D02*
X126690000Y-116640000D01*
X122150000Y-114500000D02*
X122150000Y-114515000D01*
X122150000Y-116625000D02*
X122150000Y-116640000D01*
X126690000Y-114500000D02*
X126690000Y-114515000D01*
X126690000Y-116625000D02*
X126690000Y-116640000D01*
X126830000Y-90170000D02*
G75*
G03*
X126830000Y-90170000I-4120000J0D01*
G01*
X126830000Y-121920000D02*
G75*
G03*
X126830000Y-121920000I-4120000J0D01*
G01*
X113465000Y-99290000D02*
X113465000Y-103830000D01*
X111325000Y-99290000D02*
X111325000Y-103830000D01*
X113465000Y-99290000D02*
X113450000Y-99290000D01*
X111340000Y-99290000D02*
X111325000Y-99290000D01*
X113465000Y-103830000D02*
X113450000Y-103830000D01*
X111340000Y-103830000D02*
X111325000Y-103830000D01*
X111325000Y-112800000D02*
X111325000Y-108260000D01*
X113465000Y-112800000D02*
X113465000Y-108260000D01*
X111325000Y-112800000D02*
X111340000Y-112800000D01*
X113450000Y-112800000D02*
X113465000Y-112800000D01*
X111325000Y-108260000D02*
X111340000Y-108260000D01*
X113450000Y-108260000D02*
X113465000Y-108260000D01*
D10*
X182512380Y-116618333D02*
X183226666Y-116618333D01*
X183369523Y-116665952D01*
X183464761Y-116761190D01*
X183512380Y-116904047D01*
X183512380Y-116999285D01*
X182512380Y-115665952D02*
X182512380Y-116142142D01*
X182988571Y-116189761D01*
X182940952Y-116142142D01*
X182893333Y-116046904D01*
X182893333Y-115808809D01*
X182940952Y-115713571D01*
X182988571Y-115665952D01*
X183083809Y-115618333D01*
X183321904Y-115618333D01*
X183417142Y-115665952D01*
X183464761Y-115713571D01*
X183512380Y-115808809D01*
X183512380Y-116046904D01*
X183464761Y-116142142D01*
X183417142Y-116189761D01*
X182512380Y-95663333D02*
X183226666Y-95663333D01*
X183369523Y-95710952D01*
X183464761Y-95806190D01*
X183512380Y-95949047D01*
X183512380Y-96044285D01*
X182845714Y-94758571D02*
X183512380Y-94758571D01*
X182464761Y-94996666D02*
X183179047Y-95234761D01*
X183179047Y-94615714D01*
X188468095Y-59037380D02*
X188468095Y-58037380D01*
X188468095Y-58513571D02*
X189039523Y-58513571D01*
X189039523Y-59037380D02*
X189039523Y-58037380D01*
X189944285Y-58370714D02*
X189944285Y-59037380D01*
X189706190Y-57989761D02*
X189468095Y-58704047D01*
X190087142Y-58704047D01*
X188468095Y-146362380D02*
X188468095Y-145362380D01*
X188468095Y-145838571D02*
X189039523Y-145838571D01*
X189039523Y-146362380D02*
X189039523Y-145362380D01*
X189420476Y-145362380D02*
X190039523Y-145362380D01*
X189706190Y-145743333D01*
X189849047Y-145743333D01*
X189944285Y-145790952D01*
X189991904Y-145838571D01*
X190039523Y-145933809D01*
X190039523Y-146171904D01*
X189991904Y-146267142D01*
X189944285Y-146314761D01*
X189849047Y-146362380D01*
X189563333Y-146362380D01*
X189468095Y-146314761D01*
X189420476Y-146267142D01*
X100838095Y-146362380D02*
X100838095Y-145362380D01*
X100838095Y-145838571D02*
X101409523Y-145838571D01*
X101409523Y-146362380D02*
X101409523Y-145362380D01*
X101838095Y-145457619D02*
X101885714Y-145410000D01*
X101980952Y-145362380D01*
X102219047Y-145362380D01*
X102314285Y-145410000D01*
X102361904Y-145457619D01*
X102409523Y-145552857D01*
X102409523Y-145648095D01*
X102361904Y-145790952D01*
X101790476Y-146362380D01*
X102409523Y-146362380D01*
X100838095Y-59117380D02*
X100838095Y-58117380D01*
X100838095Y-58593571D02*
X101409523Y-58593571D01*
X101409523Y-59117380D02*
X101409523Y-58117380D01*
X102409523Y-59117380D02*
X101838095Y-59117380D01*
X102123809Y-59117380D02*
X102123809Y-58117380D01*
X102028571Y-58260238D01*
X101933333Y-58355476D01*
X101838095Y-58403095D01*
X105076666Y-96377380D02*
X105076666Y-97091666D01*
X105029047Y-97234523D01*
X104933809Y-97329761D01*
X104790952Y-97377380D01*
X104695714Y-97377380D01*
X105457619Y-96377380D02*
X106076666Y-96377380D01*
X105743333Y-96758333D01*
X105886190Y-96758333D01*
X105981428Y-96805952D01*
X106029047Y-96853571D01*
X106076666Y-96948809D01*
X106076666Y-97186904D01*
X106029047Y-97282142D01*
X105981428Y-97329761D01*
X105886190Y-97377380D01*
X105600476Y-97377380D01*
X105505238Y-97329761D01*
X105457619Y-97282142D01*
X107502380Y-76961904D02*
X108311904Y-76961904D01*
X108407142Y-76914285D01*
X108454761Y-76866666D01*
X108502380Y-76771428D01*
X108502380Y-76580952D01*
X108454761Y-76485714D01*
X108407142Y-76438095D01*
X108311904Y-76390476D01*
X107502380Y-76390476D01*
X107502380Y-76009523D02*
X107502380Y-75390476D01*
X107883333Y-75723809D01*
X107883333Y-75580952D01*
X107930952Y-75485714D01*
X107978571Y-75438095D01*
X108073809Y-75390476D01*
X108311904Y-75390476D01*
X108407142Y-75438095D01*
X108454761Y-75485714D01*
X108502380Y-75580952D01*
X108502380Y-75866666D01*
X108454761Y-75961904D01*
X108407142Y-76009523D01*
X107502380Y-65531904D02*
X108311904Y-65531904D01*
X108407142Y-65484285D01*
X108454761Y-65436666D01*
X108502380Y-65341428D01*
X108502380Y-65150952D01*
X108454761Y-65055714D01*
X108407142Y-65008095D01*
X108311904Y-64960476D01*
X107502380Y-64960476D01*
X107597619Y-64531904D02*
X107550000Y-64484285D01*
X107502380Y-64389047D01*
X107502380Y-64150952D01*
X107550000Y-64055714D01*
X107597619Y-64008095D01*
X107692857Y-63960476D01*
X107788095Y-63960476D01*
X107930952Y-64008095D01*
X108502380Y-64579523D01*
X108502380Y-63960476D01*
X138942380Y-106806904D02*
X139751904Y-106806904D01*
X139847142Y-106759285D01*
X139894761Y-106711666D01*
X139942380Y-106616428D01*
X139942380Y-106425952D01*
X139894761Y-106330714D01*
X139847142Y-106283095D01*
X139751904Y-106235476D01*
X138942380Y-106235476D01*
X139942380Y-105235476D02*
X139942380Y-105806904D01*
X139942380Y-105521190D02*
X138942380Y-105521190D01*
X139085238Y-105616428D01*
X139180476Y-105711666D01*
X139228095Y-105806904D01*
X144470380Y-114815857D02*
X143994190Y-115149190D01*
X144470380Y-115387285D02*
X143470380Y-115387285D01*
X143470380Y-115006333D01*
X143518000Y-114911095D01*
X143565619Y-114863476D01*
X143660857Y-114815857D01*
X143803714Y-114815857D01*
X143898952Y-114863476D01*
X143946571Y-114911095D01*
X143994190Y-115006333D01*
X143994190Y-115387285D01*
X144470380Y-113863476D02*
X144470380Y-114434904D01*
X144470380Y-114149190D02*
X143470380Y-114149190D01*
X143613238Y-114244428D01*
X143708476Y-114339666D01*
X143756095Y-114434904D01*
X143470380Y-113006333D02*
X143470380Y-113196809D01*
X143518000Y-113292047D01*
X143565619Y-113339666D01*
X143708476Y-113434904D01*
X143898952Y-113482523D01*
X144279904Y-113482523D01*
X144375142Y-113434904D01*
X144422761Y-113387285D01*
X144470380Y-113292047D01*
X144470380Y-113101571D01*
X144422761Y-113006333D01*
X144375142Y-112958714D01*
X144279904Y-112911095D01*
X144041809Y-112911095D01*
X143946571Y-112958714D01*
X143898952Y-113006333D01*
X143851333Y-113101571D01*
X143851333Y-113292047D01*
X143898952Y-113387285D01*
X143946571Y-113434904D01*
X144041809Y-113482523D01*
X145232380Y-128912857D02*
X144756190Y-129246190D01*
X145232380Y-129484285D02*
X144232380Y-129484285D01*
X144232380Y-129103333D01*
X144280000Y-129008095D01*
X144327619Y-128960476D01*
X144422857Y-128912857D01*
X144565714Y-128912857D01*
X144660952Y-128960476D01*
X144708571Y-129008095D01*
X144756190Y-129103333D01*
X144756190Y-129484285D01*
X145232380Y-127960476D02*
X145232380Y-128531904D01*
X145232380Y-128246190D02*
X144232380Y-128246190D01*
X144375238Y-128341428D01*
X144470476Y-128436666D01*
X144518095Y-128531904D01*
X144232380Y-127055714D02*
X144232380Y-127531904D01*
X144708571Y-127579523D01*
X144660952Y-127531904D01*
X144613333Y-127436666D01*
X144613333Y-127198571D01*
X144660952Y-127103333D01*
X144708571Y-127055714D01*
X144803809Y-127008095D01*
X145041904Y-127008095D01*
X145137142Y-127055714D01*
X145184761Y-127103333D01*
X145232380Y-127198571D01*
X145232380Y-127436666D01*
X145184761Y-127531904D01*
X145137142Y-127579523D01*
X144470380Y-98432857D02*
X143994190Y-98766190D01*
X144470380Y-99004285D02*
X143470380Y-99004285D01*
X143470380Y-98623333D01*
X143518000Y-98528095D01*
X143565619Y-98480476D01*
X143660857Y-98432857D01*
X143803714Y-98432857D01*
X143898952Y-98480476D01*
X143946571Y-98528095D01*
X143994190Y-98623333D01*
X143994190Y-99004285D01*
X144470380Y-97480476D02*
X144470380Y-98051904D01*
X144470380Y-97766190D02*
X143470380Y-97766190D01*
X143613238Y-97861428D01*
X143708476Y-97956666D01*
X143756095Y-98051904D01*
X143803714Y-96623333D02*
X144470380Y-96623333D01*
X143422761Y-96861428D02*
X144137047Y-97099523D01*
X144137047Y-96480476D01*
X145232380Y-84462857D02*
X144756190Y-84796190D01*
X145232380Y-85034285D02*
X144232380Y-85034285D01*
X144232380Y-84653333D01*
X144280000Y-84558095D01*
X144327619Y-84510476D01*
X144422857Y-84462857D01*
X144565714Y-84462857D01*
X144660952Y-84510476D01*
X144708571Y-84558095D01*
X144756190Y-84653333D01*
X144756190Y-85034285D01*
X145232380Y-83510476D02*
X145232380Y-84081904D01*
X145232380Y-83796190D02*
X144232380Y-83796190D01*
X144375238Y-83891428D01*
X144470476Y-83986666D01*
X144518095Y-84081904D01*
X144232380Y-83177142D02*
X144232380Y-82558095D01*
X144613333Y-82891428D01*
X144613333Y-82748571D01*
X144660952Y-82653333D01*
X144708571Y-82605714D01*
X144803809Y-82558095D01*
X145041904Y-82558095D01*
X145137142Y-82605714D01*
X145184761Y-82653333D01*
X145232380Y-82748571D01*
X145232380Y-83034285D01*
X145184761Y-83129523D01*
X145137142Y-83177142D01*
X132707142Y-99512380D02*
X132373809Y-99036190D01*
X132135714Y-99512380D02*
X132135714Y-98512380D01*
X132516666Y-98512380D01*
X132611904Y-98560000D01*
X132659523Y-98607619D01*
X132707142Y-98702857D01*
X132707142Y-98845714D01*
X132659523Y-98940952D01*
X132611904Y-98988571D01*
X132516666Y-99036190D01*
X132135714Y-99036190D01*
X133659523Y-99512380D02*
X133088095Y-99512380D01*
X133373809Y-99512380D02*
X133373809Y-98512380D01*
X133278571Y-98655238D01*
X133183333Y-98750476D01*
X133088095Y-98798095D01*
X134040476Y-98607619D02*
X134088095Y-98560000D01*
X134183333Y-98512380D01*
X134421428Y-98512380D01*
X134516666Y-98560000D01*
X134564285Y-98607619D01*
X134611904Y-98702857D01*
X134611904Y-98798095D01*
X134564285Y-98940952D01*
X133992857Y-99512380D01*
X134611904Y-99512380D01*
X132707142Y-113482380D02*
X132373809Y-113006190D01*
X132135714Y-113482380D02*
X132135714Y-112482380D01*
X132516666Y-112482380D01*
X132611904Y-112530000D01*
X132659523Y-112577619D01*
X132707142Y-112672857D01*
X132707142Y-112815714D01*
X132659523Y-112910952D01*
X132611904Y-112958571D01*
X132516666Y-113006190D01*
X132135714Y-113006190D01*
X133659523Y-113482380D02*
X133088095Y-113482380D01*
X133373809Y-113482380D02*
X133373809Y-112482380D01*
X133278571Y-112625238D01*
X133183333Y-112720476D01*
X133088095Y-112768095D01*
X134611904Y-113482380D02*
X134040476Y-113482380D01*
X134326190Y-113482380D02*
X134326190Y-112482380D01*
X134230952Y-112625238D01*
X134135714Y-112720476D01*
X134040476Y-112768095D01*
X132834142Y-96972380D02*
X132500809Y-96496190D01*
X132262714Y-96972380D02*
X132262714Y-95972380D01*
X132643666Y-95972380D01*
X132738904Y-96020000D01*
X132786523Y-96067619D01*
X132834142Y-96162857D01*
X132834142Y-96305714D01*
X132786523Y-96400952D01*
X132738904Y-96448571D01*
X132643666Y-96496190D01*
X132262714Y-96496190D01*
X133786523Y-96972380D02*
X133215095Y-96972380D01*
X133500809Y-96972380D02*
X133500809Y-95972380D01*
X133405571Y-96115238D01*
X133310333Y-96210476D01*
X133215095Y-96258095D01*
X134405571Y-95972380D02*
X134500809Y-95972380D01*
X134596047Y-96020000D01*
X134643666Y-96067619D01*
X134691285Y-96162857D01*
X134738904Y-96353333D01*
X134738904Y-96591428D01*
X134691285Y-96781904D01*
X134643666Y-96877142D01*
X134596047Y-96924761D01*
X134500809Y-96972380D01*
X134405571Y-96972380D01*
X134310333Y-96924761D01*
X134262714Y-96877142D01*
X134215095Y-96781904D01*
X134167476Y-96591428D01*
X134167476Y-96353333D01*
X134215095Y-96162857D01*
X134262714Y-96067619D01*
X134310333Y-96020000D01*
X134405571Y-95972380D01*
X133310333Y-116022380D02*
X132977000Y-115546190D01*
X132738904Y-116022380D02*
X132738904Y-115022380D01*
X133119857Y-115022380D01*
X133215095Y-115070000D01*
X133262714Y-115117619D01*
X133310333Y-115212857D01*
X133310333Y-115355714D01*
X133262714Y-115450952D01*
X133215095Y-115498571D01*
X133119857Y-115546190D01*
X132738904Y-115546190D01*
X133786523Y-116022380D02*
X133977000Y-116022380D01*
X134072238Y-115974761D01*
X134119857Y-115927142D01*
X134215095Y-115784285D01*
X134262714Y-115593809D01*
X134262714Y-115212857D01*
X134215095Y-115117619D01*
X134167476Y-115070000D01*
X134072238Y-115022380D01*
X133881761Y-115022380D01*
X133786523Y-115070000D01*
X133738904Y-115117619D01*
X133691285Y-115212857D01*
X133691285Y-115450952D01*
X133738904Y-115546190D01*
X133786523Y-115593809D01*
X133881761Y-115641428D01*
X134072238Y-115641428D01*
X134167476Y-115593809D01*
X134215095Y-115546190D01*
X134262714Y-115450952D01*
X129992380Y-90336666D02*
X129516190Y-90670000D01*
X129992380Y-90908095D02*
X128992380Y-90908095D01*
X128992380Y-90527142D01*
X129040000Y-90431904D01*
X129087619Y-90384285D01*
X129182857Y-90336666D01*
X129325714Y-90336666D01*
X129420952Y-90384285D01*
X129468571Y-90431904D01*
X129516190Y-90527142D01*
X129516190Y-90908095D01*
X129420952Y-89765238D02*
X129373333Y-89860476D01*
X129325714Y-89908095D01*
X129230476Y-89955714D01*
X129182857Y-89955714D01*
X129087619Y-89908095D01*
X129040000Y-89860476D01*
X128992380Y-89765238D01*
X128992380Y-89574761D01*
X129040000Y-89479523D01*
X129087619Y-89431904D01*
X129182857Y-89384285D01*
X129230476Y-89384285D01*
X129325714Y-89431904D01*
X129373333Y-89479523D01*
X129420952Y-89574761D01*
X129420952Y-89765238D01*
X129468571Y-89860476D01*
X129516190Y-89908095D01*
X129611428Y-89955714D01*
X129801904Y-89955714D01*
X129897142Y-89908095D01*
X129944761Y-89860476D01*
X129992380Y-89765238D01*
X129992380Y-89574761D01*
X129944761Y-89479523D01*
X129897142Y-89431904D01*
X129801904Y-89384285D01*
X129611428Y-89384285D01*
X129516190Y-89431904D01*
X129468571Y-89479523D01*
X129420952Y-89574761D01*
X130119380Y-122213666D02*
X129643190Y-122547000D01*
X130119380Y-122785095D02*
X129119380Y-122785095D01*
X129119380Y-122404142D01*
X129167000Y-122308904D01*
X129214619Y-122261285D01*
X129309857Y-122213666D01*
X129452714Y-122213666D01*
X129547952Y-122261285D01*
X129595571Y-122308904D01*
X129643190Y-122404142D01*
X129643190Y-122785095D01*
X129119380Y-121880333D02*
X129119380Y-121213666D01*
X130119380Y-121642238D01*
X123023333Y-100782380D02*
X122690000Y-100306190D01*
X122451904Y-100782380D02*
X122451904Y-99782380D01*
X122832857Y-99782380D01*
X122928095Y-99830000D01*
X122975714Y-99877619D01*
X123023333Y-99972857D01*
X123023333Y-100115714D01*
X122975714Y-100210952D01*
X122928095Y-100258571D01*
X122832857Y-100306190D01*
X122451904Y-100306190D01*
X123880476Y-99782380D02*
X123690000Y-99782380D01*
X123594761Y-99830000D01*
X123547142Y-99877619D01*
X123451904Y-100020476D01*
X123404285Y-100210952D01*
X123404285Y-100591904D01*
X123451904Y-100687142D01*
X123499523Y-100734761D01*
X123594761Y-100782380D01*
X123785238Y-100782380D01*
X123880476Y-100734761D01*
X123928095Y-100687142D01*
X123975714Y-100591904D01*
X123975714Y-100353809D01*
X123928095Y-100258571D01*
X123880476Y-100210952D01*
X123785238Y-100163333D01*
X123594761Y-100163333D01*
X123499523Y-100210952D01*
X123451904Y-100258571D01*
X123404285Y-100353809D01*
X123023333Y-112212380D02*
X122690000Y-111736190D01*
X122451904Y-112212380D02*
X122451904Y-111212380D01*
X122832857Y-111212380D01*
X122928095Y-111260000D01*
X122975714Y-111307619D01*
X123023333Y-111402857D01*
X123023333Y-111545714D01*
X122975714Y-111640952D01*
X122928095Y-111688571D01*
X122832857Y-111736190D01*
X122451904Y-111736190D01*
X123928095Y-111212380D02*
X123451904Y-111212380D01*
X123404285Y-111688571D01*
X123451904Y-111640952D01*
X123547142Y-111593333D01*
X123785238Y-111593333D01*
X123880476Y-111640952D01*
X123928095Y-111688571D01*
X123975714Y-111783809D01*
X123975714Y-112021904D01*
X123928095Y-112117142D01*
X123880476Y-112164761D01*
X123785238Y-112212380D01*
X123547142Y-112212380D01*
X123451904Y-112164761D01*
X123404285Y-112117142D01*
X109672380Y-90336666D02*
X109196190Y-90670000D01*
X109672380Y-90908095D02*
X108672380Y-90908095D01*
X108672380Y-90527142D01*
X108720000Y-90431904D01*
X108767619Y-90384285D01*
X108862857Y-90336666D01*
X109005714Y-90336666D01*
X109100952Y-90384285D01*
X109148571Y-90431904D01*
X109196190Y-90527142D01*
X109196190Y-90908095D01*
X109005714Y-89479523D02*
X109672380Y-89479523D01*
X108624761Y-89717619D02*
X109339047Y-89955714D01*
X109339047Y-89336666D01*
X109672380Y-122086666D02*
X109196190Y-122420000D01*
X109672380Y-122658095D02*
X108672380Y-122658095D01*
X108672380Y-122277142D01*
X108720000Y-122181904D01*
X108767619Y-122134285D01*
X108862857Y-122086666D01*
X109005714Y-122086666D01*
X109100952Y-122134285D01*
X109148571Y-122181904D01*
X109196190Y-122277142D01*
X109196190Y-122658095D01*
X108672380Y-121753333D02*
X108672380Y-121134285D01*
X109053333Y-121467619D01*
X109053333Y-121324761D01*
X109100952Y-121229523D01*
X109148571Y-121181904D01*
X109243809Y-121134285D01*
X109481904Y-121134285D01*
X109577142Y-121181904D01*
X109624761Y-121229523D01*
X109672380Y-121324761D01*
X109672380Y-121610476D01*
X109624761Y-121705714D01*
X109577142Y-121753333D01*
X109672380Y-100496666D02*
X109196190Y-100830000D01*
X109672380Y-101068095D02*
X108672380Y-101068095D01*
X108672380Y-100687142D01*
X108720000Y-100591904D01*
X108767619Y-100544285D01*
X108862857Y-100496666D01*
X109005714Y-100496666D01*
X109100952Y-100544285D01*
X109148571Y-100591904D01*
X109196190Y-100687142D01*
X109196190Y-101068095D01*
X108767619Y-100115714D02*
X108720000Y-100068095D01*
X108672380Y-99972857D01*
X108672380Y-99734761D01*
X108720000Y-99639523D01*
X108767619Y-99591904D01*
X108862857Y-99544285D01*
X108958095Y-99544285D01*
X109100952Y-99591904D01*
X109672380Y-100163333D01*
X109672380Y-99544285D01*
X109672380Y-111926666D02*
X109196190Y-112260000D01*
X109672380Y-112498095D02*
X108672380Y-112498095D01*
X108672380Y-112117142D01*
X108720000Y-112021904D01*
X108767619Y-111974285D01*
X108862857Y-111926666D01*
X109005714Y-111926666D01*
X109100952Y-111974285D01*
X109148571Y-112021904D01*
X109196190Y-112117142D01*
X109196190Y-112498095D01*
X109672380Y-110974285D02*
X109672380Y-111545714D01*
X109672380Y-111260000D02*
X108672380Y-111260000D01*
X108815238Y-111355238D01*
X108910476Y-111450476D01*
X108958095Y-111545714D01*
X174527619Y-116670238D02*
X174480000Y-116765476D01*
X174384761Y-116860714D01*
X174241904Y-117003571D01*
X174194285Y-117098809D01*
X174194285Y-117194047D01*
X174432380Y-117146428D02*
X174384761Y-117241666D01*
X174289523Y-117336904D01*
X174099047Y-117384523D01*
X173765714Y-117384523D01*
X173575238Y-117336904D01*
X173480000Y-117241666D01*
X173432380Y-117146428D01*
X173432380Y-116955952D01*
X173480000Y-116860714D01*
X173575238Y-116765476D01*
X173765714Y-116717857D01*
X174099047Y-116717857D01*
X174289523Y-116765476D01*
X174384761Y-116860714D01*
X174432380Y-116955952D01*
X174432380Y-117146428D01*
X173765714Y-115860714D02*
X174432380Y-115860714D01*
X173384761Y-116098809D02*
X174099047Y-116336904D01*
X174099047Y-115717857D01*
X174527619Y-143340238D02*
X174480000Y-143435476D01*
X174384761Y-143530714D01*
X174241904Y-143673571D01*
X174194285Y-143768809D01*
X174194285Y-143864047D01*
X174432380Y-143816428D02*
X174384761Y-143911666D01*
X174289523Y-144006904D01*
X174099047Y-144054523D01*
X173765714Y-144054523D01*
X173575238Y-144006904D01*
X173480000Y-143911666D01*
X173432380Y-143816428D01*
X173432380Y-143625952D01*
X173480000Y-143530714D01*
X173575238Y-143435476D01*
X173765714Y-143387857D01*
X174099047Y-143387857D01*
X174289523Y-143435476D01*
X174384761Y-143530714D01*
X174432380Y-143625952D01*
X174432380Y-143816428D01*
X173432380Y-143054523D02*
X173432380Y-142435476D01*
X173813333Y-142768809D01*
X173813333Y-142625952D01*
X173860952Y-142530714D01*
X173908571Y-142483095D01*
X174003809Y-142435476D01*
X174241904Y-142435476D01*
X174337142Y-142483095D01*
X174384761Y-142530714D01*
X174432380Y-142625952D01*
X174432380Y-142911666D01*
X174384761Y-143006904D01*
X174337142Y-143054523D01*
X174527619Y-95715238D02*
X174480000Y-95810476D01*
X174384761Y-95905714D01*
X174241904Y-96048571D01*
X174194285Y-96143809D01*
X174194285Y-96239047D01*
X174432380Y-96191428D02*
X174384761Y-96286666D01*
X174289523Y-96381904D01*
X174099047Y-96429523D01*
X173765714Y-96429523D01*
X173575238Y-96381904D01*
X173480000Y-96286666D01*
X173432380Y-96191428D01*
X173432380Y-96000952D01*
X173480000Y-95905714D01*
X173575238Y-95810476D01*
X173765714Y-95762857D01*
X174099047Y-95762857D01*
X174289523Y-95810476D01*
X174384761Y-95905714D01*
X174432380Y-96000952D01*
X174432380Y-96191428D01*
X173527619Y-95381904D02*
X173480000Y-95334285D01*
X173432380Y-95239047D01*
X173432380Y-95000952D01*
X173480000Y-94905714D01*
X173527619Y-94858095D01*
X173622857Y-94810476D01*
X173718095Y-94810476D01*
X173860952Y-94858095D01*
X174432380Y-95429523D01*
X174432380Y-94810476D01*
X174527619Y-69015238D02*
X174480000Y-69110476D01*
X174384761Y-69205714D01*
X174241904Y-69348571D01*
X174194285Y-69443809D01*
X174194285Y-69539047D01*
X174432380Y-69491428D02*
X174384761Y-69586666D01*
X174289523Y-69681904D01*
X174099047Y-69729523D01*
X173765714Y-69729523D01*
X173575238Y-69681904D01*
X173480000Y-69586666D01*
X173432380Y-69491428D01*
X173432380Y-69300952D01*
X173480000Y-69205714D01*
X173575238Y-69110476D01*
X173765714Y-69062857D01*
X174099047Y-69062857D01*
X174289523Y-69110476D01*
X174384761Y-69205714D01*
X174432380Y-69300952D01*
X174432380Y-69491428D01*
X174432380Y-68110476D02*
X174432380Y-68681904D01*
X174432380Y-68396190D02*
X173432380Y-68396190D01*
X173575238Y-68491428D01*
X173670476Y-68586666D01*
X173718095Y-68681904D01*
X107222380Y-75818333D02*
X107936666Y-75818333D01*
X108079523Y-75865952D01*
X108174761Y-75961190D01*
X108222380Y-76104047D01*
X108222380Y-76199285D01*
X107317619Y-75389761D02*
X107270000Y-75342142D01*
X107222380Y-75246904D01*
X107222380Y-75008809D01*
X107270000Y-74913571D01*
X107317619Y-74865952D01*
X107412857Y-74818333D01*
X107508095Y-74818333D01*
X107650952Y-74865952D01*
X108222380Y-75437380D01*
X108222380Y-74818333D01*
X101266666Y-99357380D02*
X101266666Y-100071666D01*
X101219047Y-100214523D01*
X101123809Y-100309761D01*
X100980952Y-100357380D01*
X100885714Y-100357380D01*
X102266666Y-100357380D02*
X101695238Y-100357380D01*
X101980952Y-100357380D02*
X101980952Y-99357380D01*
X101885714Y-99500238D01*
X101790476Y-99595476D01*
X101695238Y-99643095D01*
X141549380Y-114022095D02*
X140549380Y-114022095D01*
X140549380Y-113784000D01*
X140597000Y-113641142D01*
X140692238Y-113545904D01*
X140787476Y-113498285D01*
X140977952Y-113450666D01*
X141120809Y-113450666D01*
X141311285Y-113498285D01*
X141406523Y-113545904D01*
X141501761Y-113641142D01*
X141549380Y-113784000D01*
X141549380Y-114022095D01*
X140977952Y-112879238D02*
X140930333Y-112974476D01*
X140882714Y-113022095D01*
X140787476Y-113069714D01*
X140739857Y-113069714D01*
X140644619Y-113022095D01*
X140597000Y-112974476D01*
X140549380Y-112879238D01*
X140549380Y-112688761D01*
X140597000Y-112593523D01*
X140644619Y-112545904D01*
X140739857Y-112498285D01*
X140787476Y-112498285D01*
X140882714Y-112545904D01*
X140930333Y-112593523D01*
X140977952Y-112688761D01*
X140977952Y-112879238D01*
X141025571Y-112974476D01*
X141073190Y-113022095D01*
X141168428Y-113069714D01*
X141358904Y-113069714D01*
X141454142Y-113022095D01*
X141501761Y-112974476D01*
X141549380Y-112879238D01*
X141549380Y-112688761D01*
X141501761Y-112593523D01*
X141454142Y-112545904D01*
X141358904Y-112498285D01*
X141168428Y-112498285D01*
X141073190Y-112545904D01*
X141025571Y-112593523D01*
X140977952Y-112688761D01*
X143422380Y-110751904D02*
X142422380Y-110751904D01*
X143422380Y-110180476D02*
X142850952Y-110609047D01*
X142422380Y-110180476D02*
X142993809Y-110751904D01*
X141422380Y-122912095D02*
X140422380Y-122912095D01*
X140422380Y-122674000D01*
X140470000Y-122531142D01*
X140565238Y-122435904D01*
X140660476Y-122388285D01*
X140850952Y-122340666D01*
X140993809Y-122340666D01*
X141184285Y-122388285D01*
X141279523Y-122435904D01*
X141374761Y-122531142D01*
X141422380Y-122674000D01*
X141422380Y-122912095D01*
X140422380Y-122007333D02*
X140422380Y-121340666D01*
X141422380Y-121769238D01*
X143422380Y-119641904D02*
X142422380Y-119641904D01*
X143422380Y-119070476D02*
X142850952Y-119499047D01*
X142422380Y-119070476D02*
X142993809Y-119641904D01*
X141422380Y-99671095D02*
X140422380Y-99671095D01*
X140422380Y-99433000D01*
X140470000Y-99290142D01*
X140565238Y-99194904D01*
X140660476Y-99147285D01*
X140850952Y-99099666D01*
X140993809Y-99099666D01*
X141184285Y-99147285D01*
X141279523Y-99194904D01*
X141374761Y-99290142D01*
X141422380Y-99433000D01*
X141422380Y-99671095D01*
X140422380Y-98242523D02*
X140422380Y-98433000D01*
X140470000Y-98528238D01*
X140517619Y-98575857D01*
X140660476Y-98671095D01*
X140850952Y-98718714D01*
X141231904Y-98718714D01*
X141327142Y-98671095D01*
X141374761Y-98623476D01*
X141422380Y-98528238D01*
X141422380Y-98337761D01*
X141374761Y-98242523D01*
X141327142Y-98194904D01*
X141231904Y-98147285D01*
X140993809Y-98147285D01*
X140898571Y-98194904D01*
X140850952Y-98242523D01*
X140803333Y-98337761D01*
X140803333Y-98528238D01*
X140850952Y-98623476D01*
X140898571Y-98671095D01*
X140993809Y-98718714D01*
X139422380Y-101861904D02*
X138422380Y-101861904D01*
X139422380Y-101290476D02*
X138850952Y-101719047D01*
X138422380Y-101290476D02*
X138993809Y-101861904D01*
X141422380Y-90781095D02*
X140422380Y-90781095D01*
X140422380Y-90543000D01*
X140470000Y-90400142D01*
X140565238Y-90304904D01*
X140660476Y-90257285D01*
X140850952Y-90209666D01*
X140993809Y-90209666D01*
X141184285Y-90257285D01*
X141279523Y-90304904D01*
X141374761Y-90400142D01*
X141422380Y-90543000D01*
X141422380Y-90781095D01*
X140422380Y-89304904D02*
X140422380Y-89781095D01*
X140898571Y-89828714D01*
X140850952Y-89781095D01*
X140803333Y-89685857D01*
X140803333Y-89447761D01*
X140850952Y-89352523D01*
X140898571Y-89304904D01*
X140993809Y-89257285D01*
X141231904Y-89257285D01*
X141327142Y-89304904D01*
X141374761Y-89352523D01*
X141422380Y-89447761D01*
X141422380Y-89685857D01*
X141374761Y-89781095D01*
X141327142Y-89828714D01*
X139422380Y-92971904D02*
X138422380Y-92971904D01*
X139422380Y-92400476D02*
X138850952Y-92829047D01*
X138422380Y-92400476D02*
X138993809Y-92971904D01*
X112847380Y-93321095D02*
X111847380Y-93321095D01*
X111847380Y-93083000D01*
X111895000Y-92940142D01*
X111990238Y-92844904D01*
X112085476Y-92797285D01*
X112275952Y-92749666D01*
X112418809Y-92749666D01*
X112609285Y-92797285D01*
X112704523Y-92844904D01*
X112799761Y-92940142D01*
X112847380Y-93083000D01*
X112847380Y-93321095D01*
X112180714Y-91892523D02*
X112847380Y-91892523D01*
X111799761Y-92130619D02*
X112514047Y-92368714D01*
X112514047Y-91749666D01*
X110847380Y-95511904D02*
X109847380Y-95511904D01*
X110847380Y-94940476D02*
X110275952Y-95369047D01*
X109847380Y-94940476D02*
X110418809Y-95511904D01*
X116657380Y-93702095D02*
X115657380Y-93702095D01*
X115657380Y-93464000D01*
X115705000Y-93321142D01*
X115800238Y-93225904D01*
X115895476Y-93178285D01*
X116085952Y-93130666D01*
X116228809Y-93130666D01*
X116419285Y-93178285D01*
X116514523Y-93225904D01*
X116609761Y-93321142D01*
X116657380Y-93464000D01*
X116657380Y-93702095D01*
X115657380Y-92797333D02*
X115657380Y-92178285D01*
X116038333Y-92511619D01*
X116038333Y-92368761D01*
X116085952Y-92273523D01*
X116133571Y-92225904D01*
X116228809Y-92178285D01*
X116466904Y-92178285D01*
X116562142Y-92225904D01*
X116609761Y-92273523D01*
X116657380Y-92368761D01*
X116657380Y-92654476D01*
X116609761Y-92749714D01*
X116562142Y-92797333D01*
X118657380Y-90431904D02*
X117657380Y-90431904D01*
X118657380Y-89860476D02*
X118085952Y-90289047D01*
X117657380Y-89860476D02*
X118228809Y-90431904D01*
X112847380Y-119737095D02*
X111847380Y-119737095D01*
X111847380Y-119499000D01*
X111895000Y-119356142D01*
X111990238Y-119260904D01*
X112085476Y-119213285D01*
X112275952Y-119165666D01*
X112418809Y-119165666D01*
X112609285Y-119213285D01*
X112704523Y-119260904D01*
X112799761Y-119356142D01*
X112847380Y-119499000D01*
X112847380Y-119737095D01*
X111942619Y-118784714D02*
X111895000Y-118737095D01*
X111847380Y-118641857D01*
X111847380Y-118403761D01*
X111895000Y-118308523D01*
X111942619Y-118260904D01*
X112037857Y-118213285D01*
X112133095Y-118213285D01*
X112275952Y-118260904D01*
X112847380Y-118832333D01*
X112847380Y-118213285D01*
X114847380Y-116466904D02*
X113847380Y-116466904D01*
X114847380Y-115895476D02*
X114275952Y-116324047D01*
X113847380Y-115895476D02*
X114418809Y-116466904D01*
X116657380Y-119229095D02*
X115657380Y-119229095D01*
X115657380Y-118991000D01*
X115705000Y-118848142D01*
X115800238Y-118752904D01*
X115895476Y-118705285D01*
X116085952Y-118657666D01*
X116228809Y-118657666D01*
X116419285Y-118705285D01*
X116514523Y-118752904D01*
X116609761Y-118848142D01*
X116657380Y-118991000D01*
X116657380Y-119229095D01*
X116657380Y-117705285D02*
X116657380Y-118276714D01*
X116657380Y-117991000D02*
X115657380Y-117991000D01*
X115800238Y-118086238D01*
X115895476Y-118181476D01*
X115943095Y-118276714D01*
X114657380Y-121546904D02*
X113657380Y-121546904D01*
X114657380Y-120975476D02*
X114085952Y-121404047D01*
X113657380Y-120975476D02*
X114228809Y-121546904D01*
X135882142Y-74017142D02*
X135834523Y-74064761D01*
X135691666Y-74112380D01*
X135596428Y-74112380D01*
X135453571Y-74064761D01*
X135358333Y-73969523D01*
X135310714Y-73874285D01*
X135263095Y-73683809D01*
X135263095Y-73540952D01*
X135310714Y-73350476D01*
X135358333Y-73255238D01*
X135453571Y-73160000D01*
X135596428Y-73112380D01*
X135691666Y-73112380D01*
X135834523Y-73160000D01*
X135882142Y-73207619D01*
X136834523Y-74112380D02*
X136263095Y-74112380D01*
X136548809Y-74112380D02*
X136548809Y-73112380D01*
X136453571Y-73255238D01*
X136358333Y-73350476D01*
X136263095Y-73398095D01*
X137215476Y-73207619D02*
X137263095Y-73160000D01*
X137358333Y-73112380D01*
X137596428Y-73112380D01*
X137691666Y-73160000D01*
X137739285Y-73207619D01*
X137786904Y-73302857D01*
X137786904Y-73398095D01*
X137739285Y-73540952D01*
X137167857Y-74112380D01*
X137786904Y-74112380D01*
X135882142Y-62714142D02*
X135834523Y-62761761D01*
X135691666Y-62809380D01*
X135596428Y-62809380D01*
X135453571Y-62761761D01*
X135358333Y-62666523D01*
X135310714Y-62571285D01*
X135263095Y-62380809D01*
X135263095Y-62237952D01*
X135310714Y-62047476D01*
X135358333Y-61952238D01*
X135453571Y-61857000D01*
X135596428Y-61809380D01*
X135691666Y-61809380D01*
X135834523Y-61857000D01*
X135882142Y-61904619D01*
X136834523Y-62809380D02*
X136263095Y-62809380D01*
X136548809Y-62809380D02*
X136548809Y-61809380D01*
X136453571Y-61952238D01*
X136358333Y-62047476D01*
X136263095Y-62095095D01*
X137786904Y-62809380D02*
X137215476Y-62809380D01*
X137501190Y-62809380D02*
X137501190Y-61809380D01*
X137405952Y-61952238D01*
X137310714Y-62047476D01*
X137215476Y-62095095D01*
X131167142Y-79636857D02*
X131214761Y-79684476D01*
X131262380Y-79827333D01*
X131262380Y-79922571D01*
X131214761Y-80065428D01*
X131119523Y-80160666D01*
X131024285Y-80208285D01*
X130833809Y-80255904D01*
X130690952Y-80255904D01*
X130500476Y-80208285D01*
X130405238Y-80160666D01*
X130310000Y-80065428D01*
X130262380Y-79922571D01*
X130262380Y-79827333D01*
X130310000Y-79684476D01*
X130357619Y-79636857D01*
X131262380Y-78684476D02*
X131262380Y-79255904D01*
X131262380Y-78970190D02*
X130262380Y-78970190D01*
X130405238Y-79065428D01*
X130500476Y-79160666D01*
X130548095Y-79255904D01*
X130262380Y-78065428D02*
X130262380Y-77970190D01*
X130310000Y-77874952D01*
X130357619Y-77827333D01*
X130452857Y-77779714D01*
X130643333Y-77732095D01*
X130881428Y-77732095D01*
X131071904Y-77779714D01*
X131167142Y-77827333D01*
X131214761Y-77874952D01*
X131262380Y-77970190D01*
X131262380Y-78065428D01*
X131214761Y-78160666D01*
X131167142Y-78208285D01*
X131071904Y-78255904D01*
X130881428Y-78303523D01*
X130643333Y-78303523D01*
X130452857Y-78255904D01*
X130357619Y-78208285D01*
X130310000Y-78160666D01*
X130262380Y-78065428D01*
X131294142Y-67095666D02*
X131341761Y-67143285D01*
X131389380Y-67286142D01*
X131389380Y-67381380D01*
X131341761Y-67524238D01*
X131246523Y-67619476D01*
X131151285Y-67667095D01*
X130960809Y-67714714D01*
X130817952Y-67714714D01*
X130627476Y-67667095D01*
X130532238Y-67619476D01*
X130437000Y-67524238D01*
X130389380Y-67381380D01*
X130389380Y-67286142D01*
X130437000Y-67143285D01*
X130484619Y-67095666D01*
X131389380Y-66619476D02*
X131389380Y-66429000D01*
X131341761Y-66333761D01*
X131294142Y-66286142D01*
X131151285Y-66190904D01*
X130960809Y-66143285D01*
X130579857Y-66143285D01*
X130484619Y-66190904D01*
X130437000Y-66238523D01*
X130389380Y-66333761D01*
X130389380Y-66524238D01*
X130437000Y-66619476D01*
X130484619Y-66667095D01*
X130579857Y-66714714D01*
X130817952Y-66714714D01*
X130913190Y-66667095D01*
X130960809Y-66619476D01*
X131008428Y-66524238D01*
X131008428Y-66333761D01*
X130960809Y-66238523D01*
X130913190Y-66190904D01*
X130817952Y-66143285D01*
X134453333Y-124563142D02*
X134405714Y-124610761D01*
X134262857Y-124658380D01*
X134167619Y-124658380D01*
X134024761Y-124610761D01*
X133929523Y-124515523D01*
X133881904Y-124420285D01*
X133834285Y-124229809D01*
X133834285Y-124086952D01*
X133881904Y-123896476D01*
X133929523Y-123801238D01*
X134024761Y-123706000D01*
X134167619Y-123658380D01*
X134262857Y-123658380D01*
X134405714Y-123706000D01*
X134453333Y-123753619D01*
X135024761Y-124086952D02*
X134929523Y-124039333D01*
X134881904Y-123991714D01*
X134834285Y-123896476D01*
X134834285Y-123848857D01*
X134881904Y-123753619D01*
X134929523Y-123706000D01*
X135024761Y-123658380D01*
X135215238Y-123658380D01*
X135310476Y-123706000D01*
X135358095Y-123753619D01*
X135405714Y-123848857D01*
X135405714Y-123896476D01*
X135358095Y-123991714D01*
X135310476Y-124039333D01*
X135215238Y-124086952D01*
X135024761Y-124086952D01*
X134929523Y-124134571D01*
X134881904Y-124182190D01*
X134834285Y-124277428D01*
X134834285Y-124467904D01*
X134881904Y-124563142D01*
X134929523Y-124610761D01*
X135024761Y-124658380D01*
X135215238Y-124658380D01*
X135310476Y-124610761D01*
X135358095Y-124563142D01*
X135405714Y-124467904D01*
X135405714Y-124277428D01*
X135358095Y-124182190D01*
X135310476Y-124134571D01*
X135215238Y-124086952D01*
X134326333Y-92813142D02*
X134278714Y-92860761D01*
X134135857Y-92908380D01*
X134040619Y-92908380D01*
X133897761Y-92860761D01*
X133802523Y-92765523D01*
X133754904Y-92670285D01*
X133707285Y-92479809D01*
X133707285Y-92336952D01*
X133754904Y-92146476D01*
X133802523Y-92051238D01*
X133897761Y-91956000D01*
X134040619Y-91908380D01*
X134135857Y-91908380D01*
X134278714Y-91956000D01*
X134326333Y-92003619D01*
X134659666Y-91908380D02*
X135326333Y-91908380D01*
X134897761Y-92908380D01*
X124293333Y-96877142D02*
X124245714Y-96924761D01*
X124102857Y-96972380D01*
X124007619Y-96972380D01*
X123864761Y-96924761D01*
X123769523Y-96829523D01*
X123721904Y-96734285D01*
X123674285Y-96543809D01*
X123674285Y-96400952D01*
X123721904Y-96210476D01*
X123769523Y-96115238D01*
X123864761Y-96020000D01*
X124007619Y-95972380D01*
X124102857Y-95972380D01*
X124245714Y-96020000D01*
X124293333Y-96067619D01*
X125150476Y-95972380D02*
X124960000Y-95972380D01*
X124864761Y-96020000D01*
X124817142Y-96067619D01*
X124721904Y-96210476D01*
X124674285Y-96400952D01*
X124674285Y-96781904D01*
X124721904Y-96877142D01*
X124769523Y-96924761D01*
X124864761Y-96972380D01*
X125055238Y-96972380D01*
X125150476Y-96924761D01*
X125198095Y-96877142D01*
X125245714Y-96781904D01*
X125245714Y-96543809D01*
X125198095Y-96448571D01*
X125150476Y-96400952D01*
X125055238Y-96353333D01*
X124864761Y-96353333D01*
X124769523Y-96400952D01*
X124721904Y-96448571D01*
X124674285Y-96543809D01*
X124293333Y-115927142D02*
X124245714Y-115974761D01*
X124102857Y-116022380D01*
X124007619Y-116022380D01*
X123864761Y-115974761D01*
X123769523Y-115879523D01*
X123721904Y-115784285D01*
X123674285Y-115593809D01*
X123674285Y-115450952D01*
X123721904Y-115260476D01*
X123769523Y-115165238D01*
X123864761Y-115070000D01*
X124007619Y-115022380D01*
X124102857Y-115022380D01*
X124245714Y-115070000D01*
X124293333Y-115117619D01*
X125198095Y-115022380D02*
X124721904Y-115022380D01*
X124674285Y-115498571D01*
X124721904Y-115450952D01*
X124817142Y-115403333D01*
X125055238Y-115403333D01*
X125150476Y-115450952D01*
X125198095Y-115498571D01*
X125245714Y-115593809D01*
X125245714Y-115831904D01*
X125198095Y-115927142D01*
X125150476Y-115974761D01*
X125055238Y-116022380D01*
X124817142Y-116022380D01*
X124721904Y-115974761D01*
X124674285Y-115927142D01*
X122388333Y-93448142D02*
X122340714Y-93495761D01*
X122197857Y-93543380D01*
X122102619Y-93543380D01*
X121959761Y-93495761D01*
X121864523Y-93400523D01*
X121816904Y-93305285D01*
X121769285Y-93114809D01*
X121769285Y-92971952D01*
X121816904Y-92781476D01*
X121864523Y-92686238D01*
X121959761Y-92591000D01*
X122102619Y-92543380D01*
X122197857Y-92543380D01*
X122340714Y-92591000D01*
X122388333Y-92638619D01*
X123245476Y-92876714D02*
X123245476Y-93543380D01*
X123007380Y-92495761D02*
X122769285Y-93210047D01*
X123388333Y-93210047D01*
X122515333Y-125198142D02*
X122467714Y-125245761D01*
X122324857Y-125293380D01*
X122229619Y-125293380D01*
X122086761Y-125245761D01*
X121991523Y-125150523D01*
X121943904Y-125055285D01*
X121896285Y-124864809D01*
X121896285Y-124721952D01*
X121943904Y-124531476D01*
X121991523Y-124436238D01*
X122086761Y-124341000D01*
X122229619Y-124293380D01*
X122324857Y-124293380D01*
X122467714Y-124341000D01*
X122515333Y-124388619D01*
X122848666Y-124293380D02*
X123467714Y-124293380D01*
X123134380Y-124674333D01*
X123277238Y-124674333D01*
X123372476Y-124721952D01*
X123420095Y-124769571D01*
X123467714Y-124864809D01*
X123467714Y-125102904D01*
X123420095Y-125198142D01*
X123372476Y-125245761D01*
X123277238Y-125293380D01*
X122991523Y-125293380D01*
X122896285Y-125245761D01*
X122848666Y-125198142D01*
X112752142Y-101726666D02*
X112799761Y-101774285D01*
X112847380Y-101917142D01*
X112847380Y-102012380D01*
X112799761Y-102155238D01*
X112704523Y-102250476D01*
X112609285Y-102298095D01*
X112418809Y-102345714D01*
X112275952Y-102345714D01*
X112085476Y-102298095D01*
X111990238Y-102250476D01*
X111895000Y-102155238D01*
X111847380Y-102012380D01*
X111847380Y-101917142D01*
X111895000Y-101774285D01*
X111942619Y-101726666D01*
X111942619Y-101345714D02*
X111895000Y-101298095D01*
X111847380Y-101202857D01*
X111847380Y-100964761D01*
X111895000Y-100869523D01*
X111942619Y-100821904D01*
X112037857Y-100774285D01*
X112133095Y-100774285D01*
X112275952Y-100821904D01*
X112847380Y-101393333D01*
X112847380Y-100774285D01*
X112752142Y-110656666D02*
X112799761Y-110704285D01*
X112847380Y-110847142D01*
X112847380Y-110942380D01*
X112799761Y-111085238D01*
X112704523Y-111180476D01*
X112609285Y-111228095D01*
X112418809Y-111275714D01*
X112275952Y-111275714D01*
X112085476Y-111228095D01*
X111990238Y-111180476D01*
X111895000Y-111085238D01*
X111847380Y-110942380D01*
X111847380Y-110847142D01*
X111895000Y-110704285D01*
X111942619Y-110656666D01*
X112847380Y-109704285D02*
X112847380Y-110275714D01*
X112847380Y-109990000D02*
X111847380Y-109990000D01*
X111990238Y-110085238D01*
X112085476Y-110180476D01*
X112133095Y-110275714D01*
M02*
