G04 #@! TF.GenerationSoftware,KiCad,Pcbnew,(5.1.9)-1*
G04 #@! TF.CreationDate,2022-04-07T18:54:58+09:00*
G04 #@! TF.ProjectId,digital_amp,64696769-7461-46c5-9f61-6d702e6b6963,rev?*
G04 #@! TF.SameCoordinates,Original*
G04 #@! TF.FileFunction,Copper,L2,Bot*
G04 #@! TF.FilePolarity,Positive*
%FSLAX46Y46*%
G04 Gerber Fmt 4.6, Leading zero omitted, Abs format (unit mm)*
G04 Created by KiCad (PCBNEW (5.1.9)-1) date 2022-04-07 18:54:58*
%MOMM*%
%LPD*%
G01*
G04 APERTURE LIST*
G04 #@! TA.AperFunction,ComponentPad*
%ADD10C,2.700000*%
G04 #@! TD*
G04 #@! TA.AperFunction,ComponentPad*
%ADD11O,1.700000X1.700000*%
G04 #@! TD*
G04 #@! TA.AperFunction,ComponentPad*
%ADD12R,1.700000X1.700000*%
G04 #@! TD*
G04 #@! TA.AperFunction,ComponentPad*
%ADD13O,2.000000X1.905000*%
G04 #@! TD*
G04 #@! TA.AperFunction,ComponentPad*
%ADD14R,2.000000X1.905000*%
G04 #@! TD*
G04 #@! TA.AperFunction,ComponentPad*
%ADD15O,1.600000X1.600000*%
G04 #@! TD*
G04 #@! TA.AperFunction,ComponentPad*
%ADD16R,1.600000X1.600000*%
G04 #@! TD*
G04 #@! TA.AperFunction,ComponentPad*
%ADD17O,1.400000X1.400000*%
G04 #@! TD*
G04 #@! TA.AperFunction,ComponentPad*
%ADD18C,1.400000*%
G04 #@! TD*
G04 #@! TA.AperFunction,ComponentPad*
%ADD19R,4.500000X2.500000*%
G04 #@! TD*
G04 #@! TA.AperFunction,ComponentPad*
%ADD20O,4.500000X2.500000*%
G04 #@! TD*
G04 #@! TA.AperFunction,ComponentPad*
%ADD21O,2.000000X2.000000*%
G04 #@! TD*
G04 #@! TA.AperFunction,ComponentPad*
%ADD22R,2.000000X2.000000*%
G04 #@! TD*
G04 #@! TA.AperFunction,ComponentPad*
%ADD23C,2.000000*%
G04 #@! TD*
G04 #@! TA.AperFunction,ComponentPad*
%ADD24C,1.600000*%
G04 #@! TD*
G04 #@! TA.AperFunction,ViaPad*
%ADD25C,0.800000*%
G04 #@! TD*
G04 #@! TA.AperFunction,Conductor*
%ADD26C,1.000000*%
G04 #@! TD*
G04 #@! TA.AperFunction,Conductor*
%ADD27C,2.500000*%
G04 #@! TD*
G04 #@! TA.AperFunction,Conductor*
%ADD28C,5.000000*%
G04 #@! TD*
G04 #@! TA.AperFunction,Conductor*
%ADD29C,2.000000*%
G04 #@! TD*
G04 APERTURE END LIST*
D10*
X187960000Y-111285000D03*
X187960000Y-116285000D03*
G04 #@! TA.AperFunction,ComponentPad*
G36*
G01*
X189059999Y-122635000D02*
X186860001Y-122635000D01*
G75*
G02*
X186610000Y-122384999I0J250001D01*
G01*
X186610000Y-120185001D01*
G75*
G02*
X186860001Y-119935000I250001J0D01*
G01*
X189059999Y-119935000D01*
G75*
G02*
X189310000Y-120185001I0J-250001D01*
G01*
X189310000Y-122384999D01*
G75*
G02*
X189059999Y-122635000I-250001J0D01*
G01*
G37*
G04 #@! TD.AperFunction*
X187960000Y-90330000D03*
X187960000Y-95330000D03*
G04 #@! TA.AperFunction,ComponentPad*
G36*
G01*
X189059999Y-101680000D02*
X186860001Y-101680000D01*
G75*
G02*
X186610000Y-101429999I0J250001D01*
G01*
X186610000Y-99230001D01*
G75*
G02*
X186860001Y-98980000I250001J0D01*
G01*
X189059999Y-98980000D01*
G75*
G02*
X189310000Y-99230001I0J-250001D01*
G01*
X189310000Y-101429999D01*
G75*
G02*
X189059999Y-101680000I-250001J0D01*
G01*
G37*
G04 #@! TD.AperFunction*
D11*
X105410000Y-112395000D03*
X105410000Y-109855000D03*
X105410000Y-107315000D03*
X105410000Y-104775000D03*
X105410000Y-102235000D03*
D12*
X105410000Y-99695000D03*
D13*
X128270000Y-73660000D03*
X128270000Y-76200000D03*
D14*
X128270000Y-78740000D03*
D13*
X128270000Y-62230000D03*
X128270000Y-64770000D03*
D14*
X128270000Y-67310000D03*
D15*
X137160000Y-109855000D03*
X129540000Y-102235000D03*
X134620000Y-109855000D03*
X132080000Y-102235000D03*
X132080000Y-109855000D03*
X134620000Y-102235000D03*
X129540000Y-109855000D03*
D16*
X137160000Y-102235000D03*
D17*
X144018000Y-118110000D03*
D18*
X144018000Y-110490000D03*
D17*
X144780000Y-124460000D03*
D18*
X144780000Y-132080000D03*
D17*
X144018000Y-93980000D03*
D18*
X144018000Y-101600000D03*
D17*
X144780000Y-87630000D03*
D18*
X144780000Y-80010000D03*
D17*
X137160000Y-99060000D03*
D18*
X129540000Y-99060000D03*
D17*
X137160000Y-113030000D03*
D18*
X129540000Y-113030000D03*
D17*
X137160000Y-96520000D03*
D18*
X129540000Y-96520000D03*
D17*
X137160000Y-115570000D03*
D18*
X129540000Y-115570000D03*
D17*
X129540000Y-93980000D03*
D18*
X129540000Y-86360000D03*
D17*
X129540000Y-118110000D03*
D18*
X129540000Y-125730000D03*
D17*
X119380000Y-100330000D03*
D18*
X127000000Y-100330000D03*
D17*
X119380000Y-111760000D03*
D18*
X127000000Y-111760000D03*
X109220000Y-86360000D03*
D17*
X109220000Y-93980000D03*
X109220000Y-118110000D03*
D18*
X109220000Y-125730000D03*
D17*
X109220000Y-104140000D03*
D18*
X109220000Y-96520000D03*
D17*
X109220000Y-107950000D03*
D18*
X109220000Y-115570000D03*
D19*
X149860000Y-111125000D03*
D20*
X149860000Y-116575000D03*
X149860000Y-122025000D03*
D19*
X149860000Y-137795000D03*
D20*
X149860000Y-143245000D03*
X149860000Y-148695000D03*
X149860000Y-101070000D03*
X149860000Y-95620000D03*
D19*
X149860000Y-90170000D03*
D20*
X149860000Y-74370000D03*
X149860000Y-68920000D03*
D19*
X149860000Y-63470000D03*
D10*
X102870000Y-80485000D03*
X102870000Y-75485000D03*
G04 #@! TA.AperFunction,ComponentPad*
G36*
G01*
X101770001Y-69135000D02*
X103969999Y-69135000D01*
G75*
G02*
X104220000Y-69385001I0J-250001D01*
G01*
X104220000Y-71584999D01*
G75*
G02*
X103969999Y-71835000I-250001J0D01*
G01*
X101770001Y-71835000D01*
G75*
G02*
X101520000Y-71584999I0J250001D01*
G01*
X101520000Y-69385001D01*
G75*
G02*
X101770001Y-69135000I250001J0D01*
G01*
G37*
G04 #@! TD.AperFunction*
D11*
X101600000Y-109855000D03*
X101600000Y-107315000D03*
X101600000Y-104775000D03*
D12*
X101600000Y-102235000D03*
D21*
X140970000Y-115570000D03*
D22*
X140970000Y-110490000D03*
D21*
X140970000Y-124460000D03*
D22*
X140970000Y-119380000D03*
D21*
X140970000Y-96520000D03*
D22*
X140970000Y-101600000D03*
D21*
X140970000Y-87630000D03*
D22*
X140970000Y-92710000D03*
D21*
X112395000Y-90170000D03*
D22*
X112395000Y-95250000D03*
D21*
X116205000Y-95250000D03*
D22*
X116205000Y-90170000D03*
D21*
X112395000Y-121285000D03*
D22*
X112395000Y-116205000D03*
D21*
X116205000Y-116205000D03*
D22*
X116205000Y-121285000D03*
D23*
X140890000Y-76200000D03*
D22*
X135890000Y-76200000D03*
D23*
X140890000Y-64770000D03*
D22*
X135890000Y-64770000D03*
D24*
X130810000Y-73700000D03*
X130810000Y-76200000D03*
X130810000Y-64730000D03*
X130810000Y-62230000D03*
X133390000Y-121920000D03*
X135890000Y-121920000D03*
X133390000Y-90170000D03*
X135890000Y-90170000D03*
X126920000Y-96520000D03*
X121920000Y-96520000D03*
X126920000Y-115570000D03*
X121920000Y-115570000D03*
X120960000Y-90170000D03*
X124460000Y-90170000D03*
X120960000Y-121920000D03*
X124460000Y-121920000D03*
X112395000Y-104060000D03*
X112395000Y-99060000D03*
X112395000Y-108030000D03*
X112395000Y-113030000D03*
D25*
X139065000Y-107315000D03*
X139065000Y-104775000D03*
D26*
X129540000Y-115570000D02*
X130810000Y-115570000D01*
X132080000Y-114300000D02*
X132080000Y-109855000D01*
X130810000Y-115570000D02*
X132080000Y-114300000D01*
X129540000Y-96520000D02*
X133350000Y-96520000D01*
X133350000Y-96520000D02*
X134620000Y-97790000D01*
X134620000Y-97790000D02*
X134620000Y-102235000D01*
X134300002Y-125730000D02*
X139065000Y-120965002D01*
X129540000Y-125730000D02*
X134300002Y-125730000D01*
X139065000Y-120965002D02*
X139065000Y-107315000D01*
X139065000Y-107315000D02*
X139065000Y-107315000D01*
X134300002Y-86360000D02*
X139065000Y-91124998D01*
X129540000Y-86360000D02*
X134300002Y-86360000D01*
X139065000Y-91124998D02*
X139065000Y-104775000D01*
X139065000Y-104775000D02*
X139065000Y-104775000D01*
D27*
X128270000Y-62230000D02*
X130810000Y-62230000D01*
X133350000Y-62230000D02*
X135890000Y-64770000D01*
X130810000Y-62230000D02*
X133350000Y-62230000D01*
D26*
X135659999Y-108354999D02*
X137160000Y-109855000D01*
X117905001Y-117364997D02*
X126914999Y-108354999D01*
X117905001Y-119584999D02*
X117905001Y-117364997D01*
X126914999Y-108354999D02*
X135659999Y-108354999D01*
X116205000Y-121285000D02*
X117905001Y-119584999D01*
X117905001Y-91870001D02*
X116205000Y-90170000D01*
X117905001Y-96782999D02*
X117905001Y-91870001D01*
X126914999Y-105792997D02*
X117905001Y-96782999D01*
X126914999Y-108354999D02*
X126914999Y-105792997D01*
D27*
X130770000Y-73660000D02*
X130810000Y-73700000D01*
X128270000Y-73660000D02*
X130770000Y-73660000D01*
X138390000Y-73700000D02*
X140890000Y-76200000D01*
X130810000Y-73700000D02*
X138390000Y-73700000D01*
D26*
X114095001Y-119584999D02*
X112395000Y-121285000D01*
X114095001Y-91870001D02*
X114095001Y-119584999D01*
X112395000Y-90170000D02*
X114095001Y-91870001D01*
D28*
X120644999Y-80650001D02*
X124460000Y-76835000D01*
D29*
X125095000Y-76200000D02*
X124460000Y-76835000D01*
X128270000Y-76200000D02*
X125095000Y-76200000D01*
D28*
X152770002Y-95620000D02*
X149860000Y-95620000D01*
D29*
X148220000Y-93980000D02*
X149860000Y-95620000D01*
X144018000Y-93980000D02*
X148220000Y-93980000D01*
D28*
X143046001Y-84229999D02*
X141208503Y-82392501D01*
X152280001Y-84229999D02*
X143046001Y-84229999D01*
X154810001Y-86759999D02*
X152280001Y-84229999D01*
X122387499Y-82392501D02*
X120644999Y-80650001D01*
X154810001Y-113900001D02*
X154810001Y-86759999D01*
X152135002Y-116575000D02*
X154810001Y-113900001D01*
X141208503Y-82392501D02*
X122387499Y-82392501D01*
X149860000Y-116575000D02*
X152135002Y-116575000D01*
D29*
X144018000Y-118110000D02*
X145288000Y-116840000D01*
X149595000Y-116840000D02*
X149860000Y-116575000D01*
X145288000Y-116840000D02*
X149595000Y-116840000D01*
D28*
X103035001Y-80650001D02*
X102870000Y-80485000D01*
X120644999Y-80650001D02*
X103035001Y-80650001D01*
X145710000Y-68920000D02*
X149860000Y-68920000D01*
D26*
X144780000Y-69850000D02*
X145710000Y-68920000D01*
D28*
X150996157Y-68920000D02*
X149860000Y-68920000D01*
X160010011Y-77933854D02*
X150996157Y-68920000D01*
X160010011Y-140344989D02*
X160010011Y-77933854D01*
X157110000Y-143245000D02*
X160010011Y-140344989D01*
X149860000Y-143245000D02*
X157110000Y-143245000D01*
D29*
X144780000Y-138165000D02*
X149860000Y-143245000D01*
X144780000Y-132080000D02*
X144780000Y-138165000D01*
X144780000Y-80010000D02*
X144780000Y-69850000D01*
D28*
X104134999Y-69220001D02*
X102870000Y-70485000D01*
X127629999Y-69220001D02*
X104134999Y-69220001D01*
X127930000Y-68920000D02*
X127629999Y-69220001D01*
X145710000Y-68920000D02*
X127930000Y-68920000D01*
M02*
